<svg xmlns="http://www.w3.org/2000/svg" viewBox="0 0 512 512" role="img" aria-label="Inurri favicon">
  <rect width="512" height="512" rx="112" fill="#020617"/>
  <circle cx="256" cy="126" r="38" fill="#06b6d4"/>
  <path fill="#ffffff" d="M218 188h76c12.7 0 23 10.3 23 23v111.7c0 13-5.2 25.5-14.3 34.7L256 404l-46.7-46.6c-9.1-9.2-14.3-21.7-14.3-34.7V211c0-12.7 10.3-23 23-23Z"/>
  <path fill="#020617" d="M256 242c-11 30.4-21.6 61-31.8 91.8L256 366l31.8-32.2A2294.8 2294.8 0 0 0 256 242Z"/>
  <circle cx="256" cy="287" r="15" fill="#06b6d4"/>
</svg>
