<svg xmlns="http://www.w3.org/2000/svg" xmlns:xlink="http://www.w3.org/1999/xlink" width="500" zoomAndPan="magnify" viewBox="0 0 375 374.999991" height="500" preserveAspectRatio="xMidYMid meet" version="1.0"><defs><g/><clipPath id="0c064f3702"><path d="M 33 11 L 299 11 L 299 273.753906 L 33 273.753906 Z M 33 11 " clip-rule="nonzero"/></clipPath><clipPath id="3b2bb9e631"><path d="M 299 167 L 307.59375 167 L 307.59375 202 L 299 202 Z M 299 167 " clip-rule="nonzero"/></clipPath></defs><g transform="translate(17.25 49.875)"><g clip-path="url(#0c064f3702)"><path fill="#ffffff" d="M 39.960938 174.652344 L 39.855469 174.742188 L 40.199219 175.851562 Z M 298.574219 123.992188 C 298.546875 125.183594 298.238281 125.226562 297.886719 123.746094 C 297.394531 121.660156 296.855469 119.527344 296.414062 117.085938 C 295.316406 112.472656 293.863281 107.75 292.625 103.015625 C 288.296875 90.035156 282.085938 77.746094 274.3125 66.445312 L 268.414062 58.554688 L 261.75 51.292969 C 260 49.214844 257.875 47.5 255.878906 45.789062 C 253.757812 43.976562 251.824219 42.375 250.277344 41.207031 C 248.660156 40.121094 247.371094 39.539062 246.765625 39.472656 C 245.898438 39.398438 243.703125 38.082031 240.4375 35.761719 C 230.699219 29.691406 220.578125 24.21875 209.210938 20.511719 L 204.746094 18.929688 L 200.144531 17.847656 C 198.808594 17.535156 197.433594 17.457031 198.085938 17.738281 C 198.625 17.96875 199.347656 18.257812 200.199219 18.515625 C 201.601562 18.914062 203.160156 19.359375 204.660156 19.789062 C 215.761719 23.621094 226.375 28.457031 235.898438 35.019531 C 240.261719 37.90625 244.339844 41.273438 248.457031 44.554688 C 251.539062 47.5 254.707031 50.203125 257.199219 53.082031 C 258.957031 55.296875 261.152344 57.691406 263.269531 60.050781 C 266.359375 63.617188 268.910156 67.601562 271.769531 71.332031 C 274.09375 75.417969 276.710938 79.34375 278.8125 83.539062 C 278.945312 83.839844 279.078125 84.28125 279.058594 84.34375 C 279.035156 84.410156 278.8125 84.175781 278.703125 83.953125 C 276.859375 80.253906 274.324219 76.898438 272.292969 73.3125 C 267.898438 66.707031 263.003906 60.632812 257.519531 55.097656 C 256.472656 53.945312 255.398438 52.769531 254.203125 51.761719 C 244.65625 42.039062 233.175781 34.363281 221.035156 28.304688 C 218.210938 26.941406 215.421875 25.378906 212.550781 24.394531 C 202.210938 19.695312 190.773438 17.375 179.265625 15.761719 C 167.164062 14.945312 154.898438 14.894531 142.972656 17.296875 C 123.164062 20.652344 104.570312 29.546875 88.628906 41.589844 C 77.792969 49.925781 68.207031 59.9375 60.304688 71.152344 C 52.300781 82.867188 46.300781 96.03125 42.546875 109.757812 C 41.902344 112.316406 41.128906 114.839844 40.539062 117.402344 L 39.25 125.179688 C 37.234375 139.839844 37.617188 154.890625 40.535156 169.445312 C 41.207031 172.003906 41.886719 174.585938 42.554688 177.125 C 46.035156 188.769531 50.636719 200.085938 57.171875 210.421875 C 58.902344 213.660156 61.113281 216.644531 63.390625 219.597656 L 66.734375 224.078125 L 70.472656 228.230469 C 72.980469 230.972656 75.375 233.824219 78.230469 236.210938 L 80.003906 237.996094 C 79.394531 237.523438 78.832031 237.089844 78.164062 236.574219 C 77.074219 235.679688 75.921875 234.730469 74.789062 233.804688 L 75.078125 234.039062 C 72.398438 231.386719 69.734375 228.535156 67.007812 225.675781 C 64.4375 222.683594 62.125 219.417969 59.652344 216.316406 C 58.753906 215.253906 58.023438 214.242188 57.3125 213.246094 C 57.1875 213.070312 57.15625 213.203125 57.238281 213.417969 C 57.332031 213.65625 57.574219 214.152344 57.804688 214.539062 C 60.191406 218.089844 62.871094 221.464844 65.351562 224.949219 C 68.550781 228.605469 71.714844 232.203125 75.179688 235.539062 C 83.722656 243.519531 93.28125 250.328125 103.5 255.960938 C 109.695312 258.964844 115.835938 262.085938 122.148438 263.78125 C 124.8125 264.601562 127.996094 265.925781 131.109375 266.546875 L 138.847656 268.5 C 141.429688 269.148438 144.105469 269.328125 146.722656 269.78125 C 151.960938 270.796875 157.292969 270.921875 162.609375 271.183594 C 175.332031 271.347656 188.238281 270.371094 200.46875 266.792969 C 204.390625 266.023438 208.054688 264.503906 211.8125 263.21875 C 215.621094 262.050781 219.195312 260.269531 222.800781 258.453125 C 224.652344 257.472656 226.71875 256.679688 228.511719 255.609375 C 238.710938 250.058594 248.226562 242.964844 256.742188 234.925781 C 266.691406 225.203125 275.039062 214.1875 281.664062 202.214844 C 284.203125 197.289062 286.796875 192.554688 288.609375 187.53125 C 290.851562 182.660156 292.296875 177.589844 293.804688 172.46875 C 295.347656 168.074219 295.757812 164.15625 296.777344 161.589844 C 297.683594 158.898438 298.277344 158.128906 298.269531 161.445312 C 298.269531 162.710938 298.253906 164.074219 298.355469 164.847656 C 298.527344 166.410156 298.582031 168.183594 298.238281 170.410156 C 297.769531 172.609375 297.03125 175.285156 295.992188 178.726562 C 295.199219 181.765625 294.054688 184.714844 292.808594 187.683594 C 291.539062 190.632812 290.617188 193.773438 289.078125 196.734375 C 288.082031 198.683594 287.101562 200.597656 286.121094 202.511719 C 284.300781 206.039062 283.445312 207.03125 284.160156 204.785156 C 284.570312 203.535156 285.054688 202.058594 285.445312 200.859375 C 285.738281 199.90625 285.03125 200.496094 284.265625 201.875 C 282.96875 204.402344 281.421875 206.78125 279.707031 209.316406 C 273.800781 219.628906 265.835938 228.679688 257.417969 237.007812 C 256.222656 238.089844 254.972656 239.21875 253.796875 240.285156 C 243 250.300781 230.453125 257.957031 217.058594 263.605469 C 200.050781 270.546875 181.632812 273.84375 163.203125 273.464844 L 153.46875 272.976562 C 137.839844 271.363281 122.558594 266.949219 108.507812 260.007812 C 103.269531 257.777344 98.597656 254.445312 93.679688 251.605469 C 91.308594 250.042969 89.101562 248.238281 86.800781 246.589844 C 84.5 244.933594 82.214844 243.269531 80.179688 241.3125 C 68.265625 231.222656 58.238281 218.761719 50.523438 205.214844 C 44.039062 193.449219 39.453125 180.746094 36.273438 168.28125 C 35.480469 163.308594 34 157.984375 33.789062 152.671875 C 33.625 150.558594 33.449219 148.242188 33.300781 146.308594 C 32.617188 137.695312 33.15625 128.273438 34.636719 119.132812 C 34.964844 115.304688 36.152344 111.664062 36.953125 107.929688 C 37.699219 104.171875 38.882812 100.535156 40.242188 96.929688 C 43.605469 86.417969 49.136719 76.632812 55.164062 67.445312 C 62.335938 57.765625 70.335938 48.804688 79.636719 41.257812 C 83.824219 37.808594 88.347656 34.738281 92.824219 31.628906 C 104.007812 24.289062 115.855469 19.617188 128.101562 15.984375 C 131.214844 15.289062 134.277344 14.609375 137.257812 13.949219 C 150.988281 11.589844 165.578125 10.863281 180.160156 12.394531 C 182.285156 12.722656 184.492188 13.058594 186.570312 13.378906 L 192.160156 14.132812 C 194.003906 14.511719 195.824219 15.015625 197.660156 15.457031 C 201.308594 16.417969 205.0625 17.113281 208.585938 18.59375 C 211.132812 19.53125 213.597656 20.128906 213.742188 19.890625 C 213.890625 19.640625 212.125 18.703125 209.816406 17.753906 C 205.945312 15.949219 201.65625 15.054688 197.40625 13.949219 C 195.339844 13.488281 193.320312 12.65625 191.242188 12.394531 C 189.378906 12.0625 188.449219 11.515625 189.9375 11.613281 C 191.628906 11.699219 193.476562 11.855469 195.335938 12.300781 C 196.238281 12.484375 197.472656 12.78125 198.476562 13.054688 C 201.035156 13.742188 203.574219 14.425781 206.105469 15.105469 L 213.460938 17.753906 C 218.453125 19.265625 223.015625 21.738281 227.777344 23.84375 C 232.199219 25.890625 236.355469 28.859375 240.644531 31.347656 L 251.222656 39.34375 C 254.898438 42.808594 258.597656 45.941406 261.710938 49.484375 C 263.71875 51.835938 265.789062 54.261719 267.890625 56.722656 C 270.007812 59.164062 271.753906 61.96875 273.75 64.585938 C 276.152344 67.617188 278.074219 71 280.109375 74.089844 C 283.351562 78.5625 285.398438 83.359375 287.46875 88.222656 C 289.300781 92.136719 290.355469 95.964844 292.167969 99.792969 C 293.542969 102.605469 294.390625 105.726562 295.355469 108.859375 C 296.234375 112.007812 297.503906 115.128906 297.984375 118.371094 C 298.316406 120.039062 298.59375 122.738281 298.574219 123.992188 " fill-opacity="1" fill-rule="nonzero"/></g><path fill="#ffffff" d="M 234.5 11.039062 C 239.921875 13.886719 244.4375 17.25 248.3125 19.96875 C 251.621094 22.828125 255.878906 26.070312 260.382812 29.496094 C 263.269531 32.027344 265.621094 34.246094 267.636719 36.4375 C 269.5 38.3125 271.246094 40.589844 273.234375 43.042969 C 276.660156 47.210938 278.066406 49.335938 278.289062 50.453125 C 278.339844 50.78125 278.902344 51.792969 279.515625 52.804688 C 279.8125 53.296875 280.78125 54.542969 281.445312 55.410156 C 281.722656 55.773438 282.15625 56.25 282.261719 56.316406 C 283.351562 57.148438 285.671875 59.101562 288.707031 64.328125 C 291.503906 69.015625 294.410156 73.445312 296.308594 78.257812 C 297.804688 81.921875 299.695312 85.359375 300.773438 89.191406 C 301.847656 92.410156 302.925781 95.652344 304.023438 98.945312 C 304.546875 100.550781 304.917969 102.410156 305.402344 104.066406 C 305.660156 105.003906 306.058594 106.203125 306.226562 106.511719 C 306.386719 106.816406 306.480469 106.484375 306.355469 105.832031 C 305.851562 103.445312 305.507812 100.835938 304.691406 98.214844 C 302.84375 92.988281 301.488281 87.300781 299.082031 82.269531 C 296.796875 76.867188 294.480469 71.484375 291.453125 66.457031 C 288.789062 61.210938 285.394531 56.421875 282 51.5625 C 280.191406 48.699219 277.695312 46.082031 275.429688 43.398438 C 273.695312 41.425781 272.046875 39.363281 270.222656 37.464844 L 264.511719 31.976562 C 262.007812 29.464844 259.359375 27.109375 256.496094 25 C 253.671875 22.847656 250.976562 20.496094 248.019531 18.523438 L 247.882812 18.492188 C 242.726562 15.359375 237.820312 11.765625 232.273438 9.269531 C 230.675781 8.492188 229.027344 7.691406 227.402344 6.898438 C 226.984375 6.699219 226.164062 6.375 226.183594 6.410156 C 226.25 6.554688 226.273438 6.75 226.84375 7.054688 C 229.300781 8.335938 231.875 9.671875 234.5 11.039062 " fill-opacity="1" fill-rule="nonzero"/><g clip-path="url(#3b2bb9e631)"><path fill="#ffffff" d="M 306.175781 169.445312 C 305.167969 174.199219 303.488281 178.816406 302.175781 183.585938 C 301.816406 185.109375 301.074219 186.867188 300.523438 188.507812 C 299.570312 191.167969 298.960938 193.625 299.195312 193.839844 C 299.429688 194.058594 300.429688 192.238281 301.375 189.824219 C 301.773438 188.769531 302.195312 187.652344 302.605469 186.558594 C 302.789062 186 303.03125 185.453125 303.15625 184.882812 C 304.304688 180.570312 304.953125 179.175781 304.796875 181.265625 C 304.613281 183.007812 304.503906 185.300781 303.574219 188.125 C 302.328125 192.425781 301.425781 195.980469 300.960938 198.582031 C 300.597656 200.625 300.347656 201.742188 301.449219 200.464844 C 301.859375 200.03125 302.511719 198.496094 303.078125 197.125 C 303.625 195.761719 304.296875 193.746094 304.6875 192.429688 C 305.449219 189.871094 305.585938 188.699219 305.472656 188.152344 C 305.304688 187.5 305.382812 186.757812 305.863281 183.734375 C 307.230469 175.53125 307.34375 172.519531 307.070312 167.601562 C 307.046875 166.5625 306.519531 167.679688 306.175781 169.445312 " fill-opacity="1" fill-rule="nonzero"/></g><path fill="#ffffff" d="M 286.222656 208.035156 C 284.5 211.253906 283.964844 212.859375 282.894531 215.199219 C 281.957031 217.074219 280.859375 219.464844 279.046875 221.46875 C 278.222656 222.492188 277.566406 223.300781 276.886719 224.140625 C 276.585938 224.550781 276.164062 225.113281 275.921875 225.441406 C 275.417969 226.199219 274.675781 227.296875 274.625 227.503906 C 274.179688 229.257812 277.511719 226.382812 281.332031 221.636719 C 282.152344 220.746094 283.136719 218.699219 283.589844 217.835938 C 284.0625 216.847656 284.019531 216.539062 284.148438 216.015625 C 284.375 215.078125 285.132812 213.441406 286.550781 210.917969 C 287.957031 208.648438 288.914062 206.085938 289.957031 203.746094 C 290.316406 202.90625 290.59375 202.066406 290.644531 201.726562 C 290.851562 200.378906 290.351562 200.523438 288.980469 202.550781 C 288.355469 203.460938 286.933594 206.410156 286.222656 208.035156 " fill-opacity="1" fill-rule="nonzero"/><path fill="#ffffff" d="M 263.070312 240.488281 C 257.984375 245.425781 255.457031 248.507812 254.355469 250.363281 C 254.265625 250.546875 255.382812 249.828125 255.699219 249.511719 C 258.574219 246.808594 261.40625 244.148438 264.28125 241.445312 C 267.195312 238.269531 267.820312 237.066406 268.160156 236.207031 C 268.148438 236.035156 268.179688 235.832031 268.121094 235.722656 C 267.910156 235.332031 265.523438 237.746094 263.070312 240.488281 " fill-opacity="1" fill-rule="nonzero"/><path fill="#ffffff" d="M 303.796875 169.066406 C 303.683594 168.714844 303.578125 168.21875 303.375 168.542969 C 302.726562 169.746094 301.527344 172.683594 300.03125 176.875 C 299.785156 177.582031 299.375 179.035156 299.203125 179.855469 C 298.945312 181.25 298.738281 182.390625 298.554688 183.375 C 298.675781 183.558594 298.691406 183.976562 298.851562 183.769531 C 299.8125 182.523438 301.121094 179.488281 302.792969 174.539062 C 303.390625 172.953125 304.03125 169.539062 303.796875 169.066406 " fill-opacity="1" fill-rule="nonzero"/><path fill="#ffffff" d="M 305.476562 153.601562 C 305.566406 151.53125 305.707031 148.113281 305.847656 144.707031 C 305.90625 143.261719 305.683594 142.210938 305.519531 142.925781 C 304.824219 145.949219 304.335938 151.054688 303.886719 156.550781 C 303.382812 159.628906 303.152344 163.335938 303.605469 162.75 C 303.972656 162.039062 305.296875 158.835938 305.476562 153.601562 " fill-opacity="1" fill-rule="nonzero"/><path fill="#ffffff" d="M 280.675781 216.179688 C 280.851562 215.773438 280.605469 215.84375 280.277344 216.277344 C 279.582031 217.160156 278.828125 218.515625 277.6875 219.761719 C 276.21875 221.75 274.628906 223.90625 273.082031 226.003906 C 272.597656 226.671875 272.09375 227.546875 272.003906 227.816406 C 271.914062 228.089844 272.167969 227.984375 272.570312 227.566406 C 274.953125 224.90625 279.570312 219.425781 280.675781 216.179688 " fill-opacity="1" fill-rule="nonzero"/><path fill="#ffffff" d="M 64.972656 32.042969 C 67.675781 29.738281 70.230469 27.21875 72.980469 25.121094 C 73.300781 24.851562 73.507812 24.601562 73.457031 24.585938 C 73.398438 24.566406 73.03125 24.75 72.667969 25.003906 C 68.703125 27.644531 65.472656 31.230469 61.953125 34.390625 C 61.644531 34.683594 61.457031 34.945312 61.21875 35.214844 C 61.585938 34.925781 61.910156 34.667969 62.328125 34.335938 C 63.183594 33.597656 64.085938 32.8125 64.972656 32.042969 " fill-opacity="1" fill-rule="nonzero"/><path fill="#ffffff" d="M 292.507812 87.175781 C 292.515625 87.292969 292.738281 87.824219 292.953125 88.410156 C 293.550781 89.648438 294.027344 91.199219 294.621094 92.664062 C 294.765625 93.046875 295 93.507812 295.085938 93.597656 C 295.308594 93.851562 295.164062 93.183594 294.695312 91.914062 C 294.113281 90.429688 293.625 88.910156 292.84375 87.558594 C 292.714844 87.300781 292.503906 87.066406 292.507812 87.175781 " fill-opacity="1" fill-rule="nonzero"/><path fill="#ffffff" d="M 287.488281 223.199219 C 287.3125 223.707031 287.554688 223.511719 288.179688 222.5 C 288.515625 221.964844 288.851562 221.226562 289.082031 220.722656 C 289.148438 220.574219 288.914062 220.808594 288.71875 221.074219 C 288.160156 221.84375 287.722656 222.605469 287.488281 223.199219 " fill-opacity="1" fill-rule="nonzero"/><path fill="#ffffff" d="M 299.796875 114.410156 C 299.753906 114.078125 299.757812 113.828125 299.667969 113.402344 C 299.46875 112.472656 299.238281 111.339844 299 110.492188 C 298.671875 109.351562 298.488281 109.164062 298.582031 109.953125 C 298.726562 111.140625 299.167969 112.988281 299.554688 114.070312 C 299.660156 114.363281 299.71875 114.304688 299.796875 114.410156 " fill-opacity="1" fill-rule="nonzero"/><path fill="#ffffff" d="M 300.273438 156.808594 C 300.214844 156.316406 300.042969 156.867188 299.835938 158.230469 C 299.773438 158.621094 299.78125 159.015625 299.757812 159.410156 C 299.835938 159.820312 299.992188 159.339844 300.203125 157.96875 C 300.261719 157.574219 300.292969 156.976562 300.273438 156.808594 " fill-opacity="1" fill-rule="nonzero"/><path fill="#ffffff" d="M 183.738281 0.628906 C 184.203125 0.574219 183.628906 0.398438 182.285156 0.175781 C 181.828125 0.101562 180.976562 0.00390625 180.867188 0.0195312 C 180.425781 0.078125 181.007812 0.253906 182.308594 0.480469 C 182.800781 0.53125 183.613281 0.644531 183.738281 0.628906 " fill-opacity="1" fill-rule="nonzero"/><path fill="#ffffff" d="M 41.214844 58.46875 L 40.890625 58.726562 C 40.421875 59.535156 39.953125 60.355469 39.503906 61.140625 C 39.476562 61.1875 39.699219 60.984375 39.8125 60.894531 L 41.214844 58.46875 " fill-opacity="1" fill-rule="nonzero"/><path fill="#ffffff" d="M 289.082031 214.242188 C 289.046875 214.214844 288.808594 214.460938 288.601562 214.777344 C 287.898438 215.828125 287.550781 216.503906 287.601562 216.679688 C 287.765625 216.503906 287.890625 216.433594 288.097656 216.128906 C 288.804688 215.066406 289.1875 214.328125 289.082031 214.242188 " fill-opacity="1" fill-rule="nonzero"/><path fill="#ffffff" d="M 295.628906 141.769531 C 295.609375 141.5 295.527344 141.105469 295.5 141.152344 C 295.472656 141.195312 295.480469 141.714844 295.472656 142.023438 L 295.613281 142.695312 C 295.617188 142.382812 295.625 142.039062 295.628906 141.769531 " fill-opacity="1" fill-rule="nonzero"/><path fill="#ffffff" d="M 296.46875 84.6875 C 296.601562 84.957031 296.753906 85.136719 296.898438 85.355469 C 296.765625 85.015625 296.609375 84.640625 296.492188 84.347656 C 296.355469 84.070312 296.203125 83.898438 296.058594 83.675781 C 296.195312 84.019531 296.347656 84.386719 296.46875 84.6875 " fill-opacity="1" fill-rule="nonzero"/><path fill="#ffffff" d="M 291.351562 122.035156 C 291.390625 122.421875 291.441406 122.871094 291.46875 123.167969 C 291.535156 123.527344 291.664062 123.988281 291.707031 124.003906 C 291.867188 124.074219 291.800781 123.417969 291.546875 122.394531 C 291.480469 122.117188 291.417969 122.148438 291.351562 122.035156 " fill-opacity="1" fill-rule="nonzero"/><path fill="#ffffff" d="M 275.910156 218.59375 L 276.5 217.992188 L 276.65625 217.566406 Z M 275.910156 218.59375 " fill-opacity="1" fill-rule="nonzero"/><path fill="#ffffff" d="M 284.859375 62.171875 L 284.125 61.148438 L 284.308594 61.566406 Z M 284.859375 62.171875 " fill-opacity="1" fill-rule="nonzero"/><path fill="#ffffff" d="M 99.628906 252.671875 L 99.011719 252.371094 L 99.953125 252.96875 Z M 99.628906 252.671875 " fill-opacity="1" fill-rule="nonzero"/><g fill="#ffffff" fill-opacity="1"><g transform="translate(60.96942, 163.095533)"><g><path d="M 11.1875 -51.765625 C 11.382812 -52.035156 11.347656 -52.1875 11.078125 -52.21875 C 10.804688 -52.25 10.535156 -52.28125 10.265625 -52.3125 C 10.003906 -52.351562 9.941406 -52.472656 10.078125 -52.671875 C 10.203125 -52.804688 10.316406 -52.941406 10.421875 -53.078125 C 10.523438 -53.210938 10.609375 -53.3125 10.671875 -53.375 C 11.484375 -53.914062 11.957031 -54.585938 12.09375 -55.390625 C 12.957031 -56.128906 13.789062 -56.566406 14.59375 -56.703125 C 15.40625 -56.835938 16.179688 -57.003906 16.921875 -57.203125 C 18.460938 -57.742188 19.972656 -58.195312 21.453125 -58.5625 C 22.929688 -58.9375 24.441406 -59.320312 25.984375 -59.71875 C 26.921875 -59.988281 27.859375 -60.140625 28.796875 -60.171875 C 29.742188 -60.210938 30.550781 -60.097656 31.21875 -59.828125 C 33.238281 -59.359375 34.046875 -58.113281 33.640625 -56.09375 C 33.578125 -55.832031 33.5625 -55.53125 33.59375 -55.1875 C 33.625 -54.851562 33.773438 -54.617188 34.046875 -54.484375 C 34.316406 -54.421875 34.382812 -54.003906 34.25 -53.234375 C 34.113281 -52.460938 33.976562 -51.90625 33.84375 -51.5625 C 32.832031 -51.226562 31.6875 -50.976562 30.40625 -50.8125 C 29.132812 -50.644531 27.960938 -50.359375 26.890625 -49.953125 C 25.816406 -49.554688 25.046875 -48.816406 24.578125 -47.734375 C 24.304688 -46.660156 24.101562 -45.9375 23.96875 -45.5625 C 23.832031 -45.195312 23.597656 -44.445312 23.265625 -43.3125 L 20.453125 -32.125 C 20.316406 -31.519531 20.195312 -30.914062 20.09375 -30.3125 C 19.988281 -29.707031 19.835938 -29.070312 19.640625 -28.40625 L 17.421875 -21.65625 C 17.148438 -20.851562 16.78125 -19.878906 16.3125 -18.734375 C 15.84375 -17.585938 15.488281 -16.492188 15.25 -15.453125 C 15.019531 -14.421875 15.101562 -13.617188 15.5 -13.046875 C 15.90625 -12.472656 16.816406 -12.320312 18.234375 -12.59375 C 18.898438 -12.65625 19.550781 -12.648438 20.1875 -12.578125 C 20.832031 -12.515625 21.390625 -12.453125 21.859375 -12.390625 C 21.859375 -12.054688 21.859375 -11.738281 21.859375 -11.4375 C 21.859375 -11.132812 22.09375 -11.015625 22.5625 -11.078125 C 22.289062 -10.535156 22.191406 -10.164062 22.265625 -9.96875 C 22.390625 -9.5 22.351562 -8.992188 22.15625 -8.453125 C 21.957031 -7.921875 21.789062 -7.382812 21.65625 -6.84375 C 21.582031 -6.644531 21.515625 -6.410156 21.453125 -6.140625 C 21.390625 -5.867188 21.289062 -5.671875 21.15625 -5.546875 C 20.34375 -4.535156 20.039062 -3.691406 20.25 -3.015625 C 20.445312 -2.617188 20.210938 -2.25 19.546875 -1.90625 C 19.140625 -1.78125 18.765625 -1.664062 18.421875 -1.5625 C 18.085938 -1.457031 17.851562 -1.539062 17.71875 -1.8125 C 17.25 -2.351562 16.34375 -2.519531 15 -2.3125 L 8.5625 -1.40625 C 7.28125 -1.207031 5.96875 -0.988281 4.625 -0.75 C 3.289062 -0.519531 1.984375 -0.335938 0.703125 -0.203125 C -0.304688 -0.0664062 -1.328125 0.015625 -2.359375 0.046875 C -3.398438 0.078125 -4.492188 0.160156 -5.640625 0.296875 C -6.179688 0.296875 -6.71875 0.128906 -7.25 -0.203125 C -7.925781 -0.535156 -8.28125 -0.9375 -8.3125 -1.40625 C -8.34375 -1.875 -8.125 -2.546875 -7.65625 -3.421875 L -5.9375 -5.9375 C -5.675781 -6.40625 -5.375 -6.707031 -5.03125 -6.84375 C -4.363281 -7.1875 -3.691406 -7.507812 -3.015625 -7.8125 C -2.347656 -8.113281 -1.675781 -8.394531 -1 -8.65625 C -0.332031 -8.925781 0.300781 -9.144531 0.90625 -9.3125 C 1.507812 -9.476562 2.144531 -9.664062 2.8125 -9.875 C 3.289062 -10.007812 3.863281 -10.3125 4.53125 -10.78125 L 5.140625 -11.578125 C 5.472656 -12.453125 5.753906 -13.304688 5.984375 -14.140625 C 6.222656 -14.984375 6.476562 -15.8125 6.75 -16.625 C 6.945312 -17.695312 7.179688 -18.734375 7.453125 -19.734375 C 7.722656 -20.742188 8.09375 -21.820312 8.5625 -22.96875 C 8.695312 -23.101562 8.796875 -23.253906 8.859375 -23.421875 C 8.929688 -23.585938 9.035156 -23.738281 9.171875 -23.875 C 9.835938 -24.8125 10.304688 -25.734375 10.578125 -26.640625 C 10.847656 -27.546875 11.082031 -28.4375 11.28125 -29.3125 C 11.476562 -30.050781 11.660156 -30.738281 11.828125 -31.375 C 12.003906 -32.007812 12.257812 -32.664062 12.59375 -33.34375 C 12.789062 -33.8125 12.90625 -34.242188 12.9375 -34.640625 C 12.976562 -35.046875 13.03125 -35.484375 13.09375 -35.953125 C 13.226562 -36.492188 13.296875 -37.015625 13.296875 -37.515625 C 13.296875 -38.015625 13.363281 -38.503906 13.5 -38.984375 C 13.769531 -39.984375 13.90625 -40.566406 13.90625 -40.734375 C 13.90625 -40.910156 14.035156 -41.46875 14.296875 -42.40625 C 14.765625 -44.082031 14.96875 -45.269531 14.90625 -45.96875 C 14.84375 -46.675781 14.554688 -47.113281 14.046875 -47.28125 C 13.546875 -47.457031 12.859375 -47.578125 11.984375 -47.640625 C 11.109375 -47.703125 10.066406 -47.90625 8.859375 -48.25 C 8.796875 -48.25 8.796875 -48.597656 8.859375 -49.296875 C 8.929688 -50.003906 8.898438 -50.390625 8.765625 -50.453125 C 8.765625 -50.453125 8.960938 -50.570312 9.359375 -50.8125 C 9.765625 -51.050781 10.1875 -51.285156 10.625 -51.515625 C 11.0625 -51.753906 11.25 -51.835938 11.1875 -51.765625 Z M -2.921875 -1 L -2.625 -0.8125 C -2.082031 -0.8125 -1.578125 -0.789062 -1.109375 -0.75 C -0.640625 -0.71875 -0.171875 -0.703125 0.296875 -0.703125 L 5.640625 -1.3125 C 6.179688 -1.375 6.71875 -1.4375 7.25 -1.5 C 7.789062 -1.570312 8.296875 -1.644531 8.765625 -1.71875 C 9.234375 -1.84375 9.71875 -1.957031 10.21875 -2.0625 C 10.726562 -2.164062 11.21875 -2.351562 11.6875 -2.625 C 12.082031 -2.75 12.460938 -2.8125 12.828125 -2.8125 C 13.203125 -2.8125 13.59375 -2.847656 14 -2.921875 C 14.46875 -3.054688 14.851562 -3.140625 15.15625 -3.171875 C 15.457031 -3.203125 15.878906 -3.421875 16.421875 -3.828125 C 16.078125 -3.828125 15.769531 -3.84375 15.5 -3.875 C 15.238281 -3.90625 14.972656 -3.921875 14.703125 -3.921875 C 14.429688 -3.992188 14.160156 -4.007812 13.890625 -3.96875 C 13.628906 -3.9375 13.332031 -3.890625 13 -3.828125 C 12.726562 -3.828125 12.457031 -3.8125 12.1875 -3.78125 C 11.914062 -3.75 11.679688 -3.765625 11.484375 -3.828125 L 14.203125 -4.125 C 14.003906 -4.46875 13.785156 -4.617188 13.546875 -4.578125 C 13.304688 -4.546875 13.019531 -4.5 12.6875 -4.4375 C 12.082031 -4.300781 11.476562 -4.195312 10.875 -4.125 C 10.269531 -4.0625 9.632812 -3.960938 8.96875 -3.828125 C 8.832031 -3.765625 8.695312 -3.734375 8.5625 -3.734375 C 8.425781 -3.734375 8.289062 -3.664062 8.15625 -3.53125 C 7.6875 -3.257812 7.234375 -3.085938 6.796875 -3.015625 C 6.359375 -2.953125 5.90625 -2.851562 5.4375 -2.71875 C 4.300781 -2.65625 3.144531 -2.535156 1.96875 -2.359375 C 0.789062 -2.191406 -0.300781 -2.039062 -1.3125 -1.90625 C -1.582031 -1.84375 -1.847656 -1.757812 -2.109375 -1.65625 C -2.378906 -1.5625 -2.648438 -1.34375 -2.921875 -1 Z M 25.78125 -51.671875 L 28.609375 -52.46875 C 28.003906 -52.601562 27.484375 -52.753906 27.046875 -52.921875 C 26.609375 -53.085938 26.019531 -52.90625 25.28125 -52.375 C 24.945312 -51.832031 25.113281 -51.597656 25.78125 -51.671875 Z M 13.296875 -50.0625 L 14.5 -50.265625 L 14.5 -50.453125 C 14.300781 -50.453125 14.132812 -50.421875 14 -50.359375 C 13.726562 -50.359375 13.523438 -50.328125 13.390625 -50.265625 C 13.390625 -50.191406 13.359375 -50.125 13.296875 -50.0625 Z M 13.296875 -50.0625 "/></g></g></g><g fill="#ffffff" fill-opacity="1"><g transform="translate(95.91846, 163.095533)"><g><path d="M 21.859375 -25.484375 C 21.585938 -25.078125 21.285156 -24.6875 20.953125 -24.3125 C 20.617188 -23.945312 20.28125 -23.597656 19.9375 -23.265625 C 19.269531 -22.523438 18.550781 -21.769531 17.78125 -21 C 17.007812 -20.226562 16.351562 -19.441406 15.8125 -18.640625 C 15.34375 -18.023438 14.835938 -17.414062 14.296875 -16.8125 C 13.765625 -16.207031 13.226562 -15.640625 12.6875 -15.109375 C 12.082031 -14.503906 11.515625 -13.734375 10.984375 -12.796875 C 10.710938 -12.390625 10.472656 -12.019531 10.265625 -11.6875 C 10.066406 -11.351562 9.832031 -11.050781 9.5625 -10.78125 C 9.164062 -10.4375 8.898438 -10.097656 8.765625 -9.765625 C 8.429688 -9.429688 8.0625 -8.644531 7.65625 -7.40625 C 7.25 -6.164062 6.84375 -4.921875 6.4375 -3.671875 C 6.039062 -2.429688 5.707031 -1.644531 5.4375 -1.3125 C 5.03125 -0.90625 4.59375 -0.703125 4.125 -0.703125 C 3.863281 -0.703125 3.394531 -0.535156 2.71875 -0.203125 C 2.445312 -0.00390625 2.144531 0.109375 1.8125 0.140625 C 1.476562 0.179688 1.242188 0.164062 1.109375 0.09375 C 0.566406 -0.03125 0.015625 -0.09375 -0.546875 -0.09375 C -1.117188 -0.09375 -1.675781 -0.128906 -2.21875 -0.203125 C -2.550781 -0.335938 -2.882812 -0.40625 -3.21875 -0.40625 C -3.5625 -0.40625 -3.898438 -0.4375 -4.234375 -0.5 C -4.972656 -0.769531 -5.539062 -1.273438 -5.9375 -2.015625 C -6.34375 -2.753906 -6.445312 -3.660156 -6.25 -4.734375 C -5.84375 -6.546875 -5.40625 -8.375 -4.9375 -10.21875 C -4.46875 -12.070312 -3.894531 -13.9375 -3.21875 -15.8125 C -2.882812 -16.75 -2.53125 -17.6875 -2.15625 -18.625 C -1.789062 -19.570312 -1.375 -20.484375 -0.90625 -21.359375 C 0.101562 -23.898438 1.210938 -26.414062 2.421875 -28.90625 C 2.953125 -29.976562 3.535156 -31.035156 4.171875 -32.078125 C 4.816406 -33.117188 5.40625 -34.109375 5.9375 -35.046875 C 6.28125 -35.648438 6.617188 -36.253906 6.953125 -36.859375 C 7.285156 -37.460938 7.585938 -38.066406 7.859375 -38.671875 C 8.390625 -39.679688 8.757812 -40.585938 8.96875 -41.390625 C 8.96875 -41.523438 8.984375 -41.644531 9.015625 -41.75 C 9.046875 -41.851562 9.0625 -41.96875 9.0625 -42.09375 C 9.601562 -42.4375 10.003906 -42.40625 10.265625 -42 C 11.003906 -41.125 11.914062 -40.519531 13 -40.1875 C 13.195312 -40.1875 13.363281 -40.019531 13.5 -39.6875 L 15 -37.671875 C 15.269531 -37.265625 15.421875 -36.804688 15.453125 -36.296875 C 15.492188 -35.796875 15.476562 -35.28125 15.40625 -34.75 C 15.34375 -32.863281 15.039062 -31 14.5 -29.15625 C 13.96875 -27.3125 13.226562 -25.414062 12.28125 -23.46875 C 11.882812 -22.59375 11.664062 -22.070312 11.625 -21.90625 C 11.59375 -21.738281 11.3125 -21.253906 10.78125 -20.453125 C 10.101562 -19.367188 9.914062 -18.554688 10.21875 -18.015625 C 10.519531 -17.484375 11.007812 -17.382812 11.6875 -17.71875 C 12.6875 -18.664062 13.390625 -19.375 13.796875 -19.84375 C 14.203125 -20.3125 14.875 -21.082031 15.8125 -22.15625 C 16.957031 -23.5625 17.914062 -24.597656 18.6875 -25.265625 C 19.457031 -25.941406 20.378906 -26.882812 21.453125 -28.09375 L 23.359375 -30.109375 C 23.835938 -30.921875 24.546875 -31.425781 25.484375 -31.625 L 26.484375 -31.625 C 27.160156 -31.5625 27.800781 -31.53125 28.40625 -31.53125 C 29.007812 -31.53125 29.613281 -31.460938 30.21875 -31.328125 C 30.6875 -31.253906 31.050781 -31.066406 31.3125 -30.765625 C 31.582031 -30.460938 31.820312 -30.144531 32.03125 -29.8125 C 32.300781 -29.34375 32.4375 -28.835938 32.4375 -28.296875 C 32.570312 -27.554688 32.65625 -26.867188 32.6875 -26.234375 C 32.71875 -25.597656 32.632812 -24.910156 32.4375 -24.171875 C 32.226562 -23.234375 32.054688 -22.410156 31.921875 -21.703125 C 31.785156 -20.992188 31.585938 -20.171875 31.328125 -19.234375 C 31.054688 -18.160156 30.867188 -16.734375 30.765625 -14.953125 C 30.671875 -13.171875 30.65625 -11.8125 30.71875 -10.875 C 30.78125 -10.070312 31.113281 -9.566406 31.71875 -9.359375 C 32.332031 -9.160156 32.988281 -9.128906 33.6875 -9.265625 C 34.394531 -9.398438 34.914062 -9.535156 35.25 -9.671875 C 35.519531 -9.804688 35.769531 -9.9375 36 -10.0625 C 36.238281 -10.195312 36.492188 -10.300781 36.765625 -10.375 C 37.429688 -10.78125 38.269531 -11.367188 39.28125 -12.140625 C 40.289062 -12.910156 41.265625 -13.710938 42.203125 -14.546875 C 43.140625 -15.390625 43.84375 -16.113281 44.3125 -16.71875 C 44.445312 -16.851562 44.800781 -17.15625 45.375 -17.625 C 45.945312 -18.09375 46.515625 -18.5625 47.078125 -19.03125 C 47.648438 -19.5 48.003906 -19.800781 48.140625 -19.9375 C 48.546875 -20.539062 48.816406 -21.0625 48.953125 -21.5 C 49.085938 -21.9375 49.351562 -22.425781 49.75 -22.96875 C 49.882812 -23.101562 49.96875 -23.234375 50 -23.359375 C 50.039062 -23.492188 50.160156 -23.664062 50.359375 -23.875 C 50.359375 -23.601562 50.390625 -23.429688 50.453125 -23.359375 C 50.523438 -23.097656 50.523438 -22.847656 50.453125 -22.609375 C 50.390625 -22.378906 50.390625 -22.09375 50.453125 -21.75 C 50.453125 -21.414062 50.453125 -21.316406 50.453125 -21.453125 C 50.453125 -21.585938 50.390625 -21.488281 50.265625 -21.15625 C 49.992188 -20.8125 49.859375 -20.375 49.859375 -19.84375 C 49.785156 -19.375 49.582031 -18.867188 49.25 -18.328125 C 48.78125 -17.660156 48.3125 -16.890625 47.84375 -16.015625 C 47.375 -15.140625 46.90625 -14.4375 46.4375 -13.90625 C 46.164062 -13.632812 45.625 -13.0625 44.8125 -12.1875 C 44.007812 -11.3125 43.222656 -10.4375 42.453125 -9.5625 C 41.679688 -8.695312 41.128906 -8.128906 40.796875 -7.859375 C 40.585938 -7.648438 40.347656 -7.476562 40.078125 -7.34375 C 39.816406 -7.21875 39.550781 -7.085938 39.28125 -6.953125 L 38.078125 -6.546875 C 37.597656 -6.347656 36.785156 -6.195312 35.640625 -6.09375 C 34.503906 -5.988281 33.363281 -5.953125 32.21875 -5.984375 C 31.082031 -6.023438 30.210938 -6.144531 29.609375 -6.34375 C 25.316406 -7.75 23.132812 -11.304688 23.0625 -17.015625 C 23.132812 -17.691406 23.1875 -18.332031 23.21875 -18.9375 C 23.25 -19.539062 23.265625 -20.175781 23.265625 -20.84375 C 23.398438 -21.582031 23.5 -22.457031 23.5625 -23.46875 C 23.632812 -24.476562 23.550781 -25.265625 23.3125 -25.828125 C 23.082031 -26.398438 22.597656 -26.285156 21.859375 -25.484375 Z M 21.859375 -25.484375 "/></g></g></g><g fill="#ffffff" fill-opacity="1"><g transform="translate(144.967978, 163.095533)"><g><path d="M 16.3125 -15.8125 L 16.3125 -16.21875 C 15.644531 -15.539062 14.738281 -14.847656 13.59375 -14.140625 C 12.457031 -13.441406 11.453125 -12.820312 10.578125 -12.28125 C 9.703125 -11.8125 8.773438 -11.539062 7.796875 -11.46875 C 6.828125 -11.40625 6.078125 -11.3125 5.546875 -11.1875 C 5.066406 -11.1875 4.375 -11.285156 3.46875 -11.484375 C 2.5625 -11.679688 1.941406 -11.882812 1.609375 -12.09375 C 0.335938 -12.820312 -0.429688 -13.503906 -0.703125 -14.140625 C -0.972656 -14.785156 -1.242188 -15.945312 -1.515625 -17.625 C -1.847656 -18.5625 -1.675781 -19.972656 -1 -21.859375 C -0.875 -22.460938 -0.492188 -23.347656 0.140625 -24.515625 C 0.785156 -25.691406 1.492188 -26.96875 2.265625 -28.34375 C 3.035156 -29.726562 3.773438 -30.988281 4.484375 -32.125 C 5.191406 -33.269531 5.644531 -34.109375 5.84375 -34.640625 C 6.113281 -35.179688 6.378906 -35.738281 6.640625 -36.3125 C 6.910156 -36.882812 7.25 -37.472656 7.65625 -38.078125 C 7.789062 -38.410156 7.972656 -38.660156 8.203125 -38.828125 C 8.441406 -38.992188 8.695312 -39.144531 8.96875 -39.28125 C 9.300781 -39.414062 9.632812 -39.515625 9.96875 -39.578125 C 10.300781 -39.648438 10.601562 -39.820312 10.875 -40.09375 C 11.613281 -40.488281 11.914062 -40.835938 11.78125 -41.140625 C 11.644531 -41.441406 11.8125 -41.628906 12.28125 -41.703125 C 13.226562 -41.703125 13.96875 -41.332031 14.5 -40.59375 C 14.707031 -40.519531 14.84375 -40.382812 14.90625 -40.1875 C 14.96875 -39.988281 15.101562 -39.785156 15.3125 -39.578125 C 15.445312 -39.515625 15.515625 -39.378906 15.515625 -39.171875 C 15.515625 -38.972656 15.515625 -38.773438 15.515625 -38.578125 C 15.304688 -37.765625 14.96875 -36.753906 14.5 -35.546875 C 14.03125 -34.335938 13.5625 -33.128906 13.09375 -31.921875 C 12.625 -30.710938 12.289062 -29.707031 12.09375 -28.90625 C 11.820312 -28.570312 11.632812 -27.882812 11.53125 -26.84375 C 11.425781 -25.800781 11.3125 -25.113281 11.1875 -24.78125 C 11.113281 -24.3125 11.007812 -23.835938 10.875 -23.359375 C 10.738281 -22.890625 10.535156 -22.390625 10.265625 -21.859375 C 10.203125 -21.453125 10.085938 -20.945312 9.921875 -20.34375 C 9.753906 -19.738281 9.804688 -19.335938 10.078125 -19.140625 C 10.273438 -18.867188 10.457031 -18.445312 10.625 -17.875 C 10.789062 -17.300781 11.007812 -17.050781 11.28125 -17.125 C 12.488281 -17.789062 13.78125 -18.257812 15.15625 -18.53125 C 16.53125 -18.800781 17.554688 -19.335938 18.234375 -20.140625 C 18.628906 -20.679688 18.976562 -20.96875 19.28125 -21 C 19.582031 -21.03125 19.9375 -21.28125 20.34375 -21.75 C 20.675781 -22.09375 20.925781 -22.414062 21.09375 -22.71875 C 21.269531 -23.019531 21.421875 -23.300781 21.546875 -23.5625 C 21.890625 -24.238281 22.109375 -24.609375 22.203125 -24.671875 C 22.304688 -24.742188 22.492188 -25.046875 22.765625 -25.578125 C 23.097656 -26.253906 23.460938 -26.894531 23.859375 -27.5 C 24.265625 -28.101562 24.671875 -28.671875 25.078125 -29.203125 C 25.210938 -29.671875 25.394531 -30.070312 25.625 -30.40625 C 25.863281 -30.75 26.117188 -31.125 26.390625 -31.53125 C 26.921875 -31.65625 27.21875 -31.71875 27.28125 -31.71875 C 27.351562 -31.71875 27.492188 -31.6875 27.703125 -31.625 C 28.441406 -31.6875 28.691406 -31.6875 28.453125 -31.625 C 28.210938 -31.5625 28.332031 -31.394531 28.8125 -31.125 C 28.9375 -30.914062 28.984375 -30.726562 28.953125 -30.5625 C 28.921875 -30.394531 28.972656 -30.242188 29.109375 -30.109375 C 28.773438 -29.171875 28.519531 -28.195312 28.34375 -27.1875 C 28.175781 -26.1875 27.859375 -25.113281 27.390625 -23.96875 C 27.253906 -23.632812 27.1875 -23.515625 27.1875 -23.609375 C 27.1875 -23.710938 27.019531 -23.53125 26.6875 -23.0625 C 26.757812 -22.789062 26.707031 -22.4375 26.53125 -22 C 26.363281 -21.570312 26.179688 -21.15625 25.984375 -20.75 C 25.785156 -20.28125 25.664062 -19.789062 25.625 -19.28125 C 25.59375 -18.78125 25.410156 -18.328125 25.078125 -17.921875 C 24.273438 -14.503906 23.875 -12.625 23.875 -12.28125 C 23.738281 -11.613281 24.390625 -11.128906 25.828125 -10.828125 C 27.273438 -10.523438 28.875 -10.644531 30.625 -11.1875 C 31.425781 -11.519531 32.347656 -12.117188 33.390625 -12.984375 C 34.429688 -13.859375 35.472656 -14.863281 36.515625 -16 C 37.554688 -17.144531 38.378906 -18.222656 38.984375 -19.234375 C 39.316406 -19.835938 39.664062 -20.457031 40.03125 -21.09375 C 40.40625 -21.738281 40.859375 -22.460938 41.390625 -23.265625 C 41.734375 -23.867188 42.035156 -24.035156 42.296875 -23.765625 C 42.566406 -23.492188 42.75 -23.085938 42.84375 -22.546875 C 42.945312 -22.015625 42.9375 -21.617188 42.8125 -21.359375 L 42.203125 -20.140625 C 41.796875 -19.867188 41.375 -19.144531 40.9375 -17.96875 C 40.5 -16.800781 40.113281 -16.050781 39.78125 -15.71875 C 39.71875 -15.644531 39.664062 -15.539062 39.625 -15.40625 C 39.59375 -15.269531 39.441406 -15.132812 39.171875 -15 C 38.503906 -14.132812 37.597656 -13.097656 36.453125 -11.890625 C 35.316406 -10.679688 34.242188 -9.671875 33.234375 -8.859375 C 32.765625 -8.796875 32.445312 -8.679688 32.28125 -8.515625 C 32.113281 -8.347656 31.796875 -8.160156 31.328125 -7.953125 C 30.984375 -7.617188 30.710938 -7.382812 30.515625 -7.25 C 30.316406 -7.113281 29.984375 -6.910156 29.515625 -6.640625 C 29.171875 -6.515625 28.929688 -6.398438 28.796875 -6.296875 C 28.671875 -6.191406 28.539062 -6.070312 28.40625 -5.9375 C 28 -6.070312 27.710938 -6.085938 27.546875 -5.984375 C 27.378906 -5.890625 27.226562 -5.773438 27.09375 -5.640625 C 26.625 -5.367188 25.832031 -5.148438 24.71875 -4.984375 C 23.613281 -4.816406 22.457031 -4.78125 21.25 -4.875 C 20.039062 -4.976562 18.96875 -5.234375 18.03125 -5.640625 C 17.09375 -6.046875 16.554688 -6.679688 16.421875 -7.546875 C 16.148438 -9.097656 15.945312 -10.441406 15.8125 -11.578125 C 15.675781 -12.722656 15.84375 -14.132812 16.3125 -15.8125 Z M 16.3125 -15.8125 "/></g></g></g><g fill="#ffffff" fill-opacity="1"><g transform="translate(185.456496, 163.095533)"><g><path d="M 8.765625 -18.125 C 8.359375 -16.914062 8.289062 -16.226562 8.5625 -16.0625 C 8.832031 -15.894531 9.25 -16.03125 9.8125 -16.46875 C 10.382812 -16.90625 10.921875 -17.457031 11.421875 -18.125 C 11.929688 -18.800781 12.21875 -19.335938 12.28125 -19.734375 C 12.414062 -20.140625 12.6875 -20.8125 13.09375 -21.75 C 13.5 -22.695312 13.96875 -23.722656 14.5 -24.828125 C 15.039062 -25.929688 15.53125 -26.9375 15.96875 -27.84375 C 16.40625 -28.75 16.722656 -29.335938 16.921875 -29.609375 C 17.253906 -30.078125 17.554688 -30.546875 17.828125 -31.015625 C 18.097656 -31.484375 18.367188 -31.957031 18.640625 -32.4375 C 19.367188 -33.375 19.90625 -34.210938 20.25 -34.953125 C 20.644531 -35.617188 21.179688 -36.019531 21.859375 -36.15625 C 22.191406 -36.15625 22.523438 -36.171875 22.859375 -36.203125 C 23.191406 -36.242188 23.492188 -36.265625 23.765625 -36.265625 C 24.367188 -36.265625 24.875 -36.0625 25.28125 -35.65625 C 25.6875 -35.25 26.019531 -34.710938 26.28125 -34.046875 L 26.28125 -33.640625 L 27 -29.515625 C 27.125 -28.835938 27.171875 -28.160156 27.140625 -27.484375 C 27.109375 -26.816406 27.09375 -26.148438 27.09375 -25.484375 C 27.09375 -25.015625 27.109375 -24.5625 27.140625 -24.125 C 27.171875 -23.6875 27.15625 -23.234375 27.09375 -22.765625 C 27.363281 -22.628906 27.5 -22.476562 27.5 -22.3125 C 27.5 -22.144531 27.53125 -22.09375 27.59375 -22.15625 C 27.726562 -22.289062 27.929688 -22.320312 28.203125 -22.25 C 28.472656 -22.1875 28.640625 -22.191406 28.703125 -22.265625 L 29.109375 -22.765625 C 29.304688 -22.898438 29.503906 -23.050781 29.703125 -23.21875 C 29.910156 -23.382812 30.113281 -23.601562 30.3125 -23.875 C 30.582031 -24.34375 30.921875 -24.34375 31.328125 -23.875 C 31.328125 -23.53125 31.191406 -23.257812 30.921875 -23.0625 L 30.625 -22.5625 C 30.488281 -22.15625 30.285156 -21.921875 30.015625 -21.859375 L 29.71875 -21.546875 C 29.507812 -21.347656 29.40625 -21.25 29.40625 -21.25 L 29.109375 -21.046875 C 28.773438 -20.710938 28.40625 -20.546875 28 -20.546875 C 27.726562 -20.546875 27.425781 -20.410156 27.09375 -20.140625 C 26.757812 -19.941406 26.488281 -19.941406 26.28125 -20.140625 C 25.945312 -20.347656 25.59375 -20.5 25.21875 -20.59375 C 24.851562 -20.695312 24.503906 -20.816406 24.171875 -20.953125 C 22.960938 -21.222656 22.085938 -22.160156 21.546875 -23.765625 C 21.285156 -24.703125 21.132812 -25.65625 21.09375 -26.625 C 21.0625 -27.601562 21.113281 -28.566406 21.25 -29.515625 C 21.382812 -29.984375 21.453125 -30.414062 21.453125 -30.8125 C 21.453125 -31.21875 21.484375 -31.625 21.546875 -32.03125 L 21.859375 -33.84375 C 22.054688 -34.175781 22.085938 -34.546875 21.953125 -34.953125 C 21.753906 -34.953125 21.65625 -34.914062 21.65625 -34.84375 L 21.25 -34.34375 L 19.84375 -31.828125 C 19.570312 -31.359375 19.367188 -30.753906 19.234375 -30.015625 C 19.304688 -29.816406 19.289062 -29.628906 19.1875 -29.453125 C 19.082031 -29.285156 19 -29.132812 18.9375 -29 C 18.46875 -28.132812 18.046875 -27.28125 17.671875 -26.4375 C 17.304688 -25.59375 16.957031 -24.703125 16.625 -23.765625 C 16.351562 -23.097656 16.066406 -22.441406 15.765625 -21.796875 C 15.460938 -21.160156 15.144531 -20.472656 14.8125 -19.734375 C 14.332031 -18.660156 13.84375 -17.632812 13.34375 -16.65625 C 12.84375 -15.6875 12.425781 -14.632812 12.09375 -13.5 C 12.019531 -13.164062 11.878906 -12.796875 11.671875 -12.390625 C 11.472656 -11.984375 11.3125 -11.582031 11.1875 -11.1875 C 11.113281 -10.976562 10.84375 -10.421875 10.375 -9.515625 C 9.90625 -8.609375 9.414062 -7.71875 8.90625 -6.84375 C 8.40625 -5.976562 8.054688 -5.441406 7.859375 -5.234375 C 7.859375 -5.171875 7.804688 -5.101562 7.703125 -5.03125 C 7.597656 -4.96875 7.484375 -4.867188 7.359375 -4.734375 C 6.753906 -3.859375 6.097656 -3.382812 5.390625 -3.3125 C 4.679688 -3.25 3.925781 -3.320312 3.125 -3.53125 C 2.988281 -3.394531 2.785156 -3.460938 2.515625 -3.734375 C 1.710938 -3.929688 1.09375 -4.378906 0.65625 -5.078125 C 0.21875 -5.785156 -0.0976562 -6.644531 -0.296875 -7.65625 C -0.429688 -8.53125 -0.515625 -9.398438 -0.546875 -10.265625 C -0.585938 -11.140625 -0.609375 -12.015625 -0.609375 -12.890625 C -0.535156 -14.234375 -0.460938 -15.554688 -0.390625 -16.859375 C -0.328125 -18.171875 -0.265625 -19.46875 -0.203125 -20.75 C -0.00390625 -21.757812 0.09375 -22.476562 0.09375 -22.90625 C 0.09375 -23.34375 0.125 -23.78125 0.1875 -24.21875 C 0.257812 -24.65625 0.429688 -25.3125 0.703125 -26.1875 C 0.972656 -27.53125 1.140625 -28.46875 1.203125 -29 C 1.273438 -29.539062 1.378906 -30.097656 1.515625 -30.671875 C 1.648438 -31.242188 1.953125 -32.164062 2.421875 -33.4375 C 2.484375 -33.769531 2.597656 -34.085938 2.765625 -34.390625 C 2.929688 -34.691406 3.050781 -35.015625 3.125 -35.359375 C 3.457031 -36.296875 3.789062 -37.164062 4.125 -37.96875 C 4.46875 -38.769531 4.835938 -39.578125 5.234375 -40.390625 C 5.441406 -41.054688 5.675781 -41.472656 5.9375 -41.640625 C 6.207031 -41.816406 6.578125 -41.835938 7.046875 -41.703125 C 7.378906 -41.703125 7.765625 -41.664062 8.203125 -41.59375 C 8.640625 -41.53125 9.09375 -41.429688 9.5625 -41.296875 C 9.90625 -41.222656 10.226562 -41.117188 10.53125 -40.984375 C 10.832031 -40.859375 11.179688 -40.625 11.578125 -40.28125 C 11.921875 -39.613281 12.34375 -39.023438 12.84375 -38.515625 C 13.34375 -38.015625 13.828125 -37.460938 14.296875 -36.859375 C 14.765625 -36.054688 15.050781 -35.300781 15.15625 -34.59375 C 15.257812 -33.894531 15.144531 -33.070312 14.8125 -32.125 C 14.675781 -31.457031 14.539062 -31.070312 14.40625 -30.96875 C 14.269531 -30.863281 14.148438 -30.78125 14.046875 -30.71875 C 13.953125 -30.65625 13.800781 -30.253906 13.59375 -29.515625 C 12.925781 -27.429688 12.085938 -25.5 11.078125 -23.71875 C 10.066406 -21.9375 9.296875 -20.070312 8.765625 -18.125 Z M 8.765625 -18.125 "/></g></g></g><g fill="#ffffff" fill-opacity="1"><g transform="translate(219.901948, 163.095533)"><g><path d="M 8.765625 -18.125 C 8.359375 -16.914062 8.289062 -16.226562 8.5625 -16.0625 C 8.832031 -15.894531 9.25 -16.03125 9.8125 -16.46875 C 10.382812 -16.90625 10.921875 -17.457031 11.421875 -18.125 C 11.929688 -18.800781 12.21875 -19.335938 12.28125 -19.734375 C 12.414062 -20.140625 12.6875 -20.8125 13.09375 -21.75 C 13.5 -22.695312 13.96875 -23.722656 14.5 -24.828125 C 15.039062 -25.929688 15.53125 -26.9375 15.96875 -27.84375 C 16.40625 -28.75 16.722656 -29.335938 16.921875 -29.609375 C 17.253906 -30.078125 17.554688 -30.546875 17.828125 -31.015625 C 18.097656 -31.484375 18.367188 -31.957031 18.640625 -32.4375 C 19.367188 -33.375 19.90625 -34.210938 20.25 -34.953125 C 20.644531 -35.617188 21.179688 -36.019531 21.859375 -36.15625 C 22.191406 -36.15625 22.523438 -36.171875 22.859375 -36.203125 C 23.191406 -36.242188 23.492188 -36.265625 23.765625 -36.265625 C 24.367188 -36.265625 24.875 -36.0625 25.28125 -35.65625 C 25.6875 -35.25 26.019531 -34.710938 26.28125 -34.046875 L 26.28125 -33.640625 L 27 -29.515625 C 27.125 -28.835938 27.171875 -28.160156 27.140625 -27.484375 C 27.109375 -26.816406 27.09375 -26.148438 27.09375 -25.484375 C 27.09375 -25.015625 27.109375 -24.5625 27.140625 -24.125 C 27.171875 -23.6875 27.15625 -23.234375 27.09375 -22.765625 C 27.363281 -22.628906 27.5 -22.476562 27.5 -22.3125 C 27.5 -22.144531 27.53125 -22.09375 27.59375 -22.15625 C 27.726562 -22.289062 27.929688 -22.320312 28.203125 -22.25 C 28.472656 -22.1875 28.640625 -22.191406 28.703125 -22.265625 L 29.109375 -22.765625 C 29.304688 -22.898438 29.503906 -23.050781 29.703125 -23.21875 C 29.910156 -23.382812 30.113281 -23.601562 30.3125 -23.875 C 30.582031 -24.34375 30.921875 -24.34375 31.328125 -23.875 C 31.328125 -23.53125 31.191406 -23.257812 30.921875 -23.0625 L 30.625 -22.5625 C 30.488281 -22.15625 30.285156 -21.921875 30.015625 -21.859375 L 29.71875 -21.546875 C 29.507812 -21.347656 29.40625 -21.25 29.40625 -21.25 L 29.109375 -21.046875 C 28.773438 -20.710938 28.40625 -20.546875 28 -20.546875 C 27.726562 -20.546875 27.425781 -20.410156 27.09375 -20.140625 C 26.757812 -19.941406 26.488281 -19.941406 26.28125 -20.140625 C 25.945312 -20.347656 25.59375 -20.5 25.21875 -20.59375 C 24.851562 -20.695312 24.503906 -20.816406 24.171875 -20.953125 C 22.960938 -21.222656 22.085938 -22.160156 21.546875 -23.765625 C 21.285156 -24.703125 21.132812 -25.65625 21.09375 -26.625 C 21.0625 -27.601562 21.113281 -28.566406 21.25 -29.515625 C 21.382812 -29.984375 21.453125 -30.414062 21.453125 -30.8125 C 21.453125 -31.21875 21.484375 -31.625 21.546875 -32.03125 L 21.859375 -33.84375 C 22.054688 -34.175781 22.085938 -34.546875 21.953125 -34.953125 C 21.753906 -34.953125 21.65625 -34.914062 21.65625 -34.84375 L 21.25 -34.34375 L 19.84375 -31.828125 C 19.570312 -31.359375 19.367188 -30.753906 19.234375 -30.015625 C 19.304688 -29.816406 19.289062 -29.628906 19.1875 -29.453125 C 19.082031 -29.285156 19 -29.132812 18.9375 -29 C 18.46875 -28.132812 18.046875 -27.28125 17.671875 -26.4375 C 17.304688 -25.59375 16.957031 -24.703125 16.625 -23.765625 C 16.351562 -23.097656 16.066406 -22.441406 15.765625 -21.796875 C 15.460938 -21.160156 15.144531 -20.472656 14.8125 -19.734375 C 14.332031 -18.660156 13.84375 -17.632812 13.34375 -16.65625 C 12.84375 -15.6875 12.425781 -14.632812 12.09375 -13.5 C 12.019531 -13.164062 11.878906 -12.796875 11.671875 -12.390625 C 11.472656 -11.984375 11.3125 -11.582031 11.1875 -11.1875 C 11.113281 -10.976562 10.84375 -10.421875 10.375 -9.515625 C 9.90625 -8.609375 9.414062 -7.71875 8.90625 -6.84375 C 8.40625 -5.976562 8.054688 -5.441406 7.859375 -5.234375 C 7.859375 -5.171875 7.804688 -5.101562 7.703125 -5.03125 C 7.597656 -4.96875 7.484375 -4.867188 7.359375 -4.734375 C 6.753906 -3.859375 6.097656 -3.382812 5.390625 -3.3125 C 4.679688 -3.25 3.925781 -3.320312 3.125 -3.53125 C 2.988281 -3.394531 2.785156 -3.460938 2.515625 -3.734375 C 1.710938 -3.929688 1.09375 -4.378906 0.65625 -5.078125 C 0.21875 -5.785156 -0.0976562 -6.644531 -0.296875 -7.65625 C -0.429688 -8.53125 -0.515625 -9.398438 -0.546875 -10.265625 C -0.585938 -11.140625 -0.609375 -12.015625 -0.609375 -12.890625 C -0.535156 -14.234375 -0.460938 -15.554688 -0.390625 -16.859375 C -0.328125 -18.171875 -0.265625 -19.46875 -0.203125 -20.75 C -0.00390625 -21.757812 0.09375 -22.476562 0.09375 -22.90625 C 0.09375 -23.34375 0.125 -23.78125 0.1875 -24.21875 C 0.257812 -24.65625 0.429688 -25.3125 0.703125 -26.1875 C 0.972656 -27.53125 1.140625 -28.46875 1.203125 -29 C 1.273438 -29.539062 1.378906 -30.097656 1.515625 -30.671875 C 1.648438 -31.242188 1.953125 -32.164062 2.421875 -33.4375 C 2.484375 -33.769531 2.597656 -34.085938 2.765625 -34.390625 C 2.929688 -34.691406 3.050781 -35.015625 3.125 -35.359375 C 3.457031 -36.296875 3.789062 -37.164062 4.125 -37.96875 C 4.46875 -38.769531 4.835938 -39.578125 5.234375 -40.390625 C 5.441406 -41.054688 5.675781 -41.472656 5.9375 -41.640625 C 6.207031 -41.816406 6.578125 -41.835938 7.046875 -41.703125 C 7.378906 -41.703125 7.765625 -41.664062 8.203125 -41.59375 C 8.640625 -41.53125 9.09375 -41.429688 9.5625 -41.296875 C 9.90625 -41.222656 10.226562 -41.117188 10.53125 -40.984375 C 10.832031 -40.859375 11.179688 -40.625 11.578125 -40.28125 C 11.921875 -39.613281 12.34375 -39.023438 12.84375 -38.515625 C 13.34375 -38.015625 13.828125 -37.460938 14.296875 -36.859375 C 14.765625 -36.054688 15.050781 -35.300781 15.15625 -34.59375 C 15.257812 -33.894531 15.144531 -33.070312 14.8125 -32.125 C 14.675781 -31.457031 14.539062 -31.070312 14.40625 -30.96875 C 14.269531 -30.863281 14.148438 -30.78125 14.046875 -30.71875 C 13.953125 -30.65625 13.800781 -30.253906 13.59375 -29.515625 C 12.925781 -27.429688 12.085938 -25.5 11.078125 -23.71875 C 10.066406 -21.9375 9.296875 -20.070312 8.765625 -18.125 Z M 8.765625 -18.125 "/></g></g></g><g fill="#ffffff" fill-opacity="1"><g transform="translate(254.347389, 163.095533)"><g><path d="M 4.640625 -31.828125 C 4.898438 -31.691406 5.097656 -31.65625 5.234375 -31.71875 L 5.34375 -31.828125 C 5.476562 -32.023438 5.609375 -32.175781 5.734375 -32.28125 C 5.867188 -32.382812 6.003906 -32.46875 6.140625 -32.53125 C 6.679688 -32.664062 7.472656 -33.019531 8.515625 -33.59375 C 9.554688 -34.164062 10.3125 -34.28125 10.78125 -33.9375 C 10.914062 -33.738281 11.179688 -33.519531 11.578125 -33.28125 C 11.984375 -33.050781 12.285156 -32.835938 12.484375 -32.640625 C 12.890625 -32.097656 12.957031 -31.359375 12.6875 -30.421875 C 12.414062 -29.742188 12.097656 -29.085938 11.734375 -28.453125 C 11.367188 -27.816406 10.984375 -27.09375 10.578125 -26.28125 L 10.078125 -24.78125 C 9.867188 -24.3125 9.664062 -23.804688 9.46875 -23.265625 C 9.269531 -22.722656 9.035156 -22.21875 8.765625 -21.75 C 8.628906 -21.351562 8.675781 -21.367188 8.90625 -21.796875 C 9.144531 -22.234375 9.398438 -22.6875 9.671875 -23.15625 C 9.941406 -23.632812 10.039062 -23.703125 9.96875 -23.359375 C 9.96875 -23.234375 9.929688 -23.101562 9.859375 -22.96875 C 9.796875 -22.832031 9.734375 -22.695312 9.671875 -22.5625 C 9.265625 -21.550781 9.023438 -20.960938 8.953125 -20.796875 C 8.890625 -20.628906 8.828125 -20.078125 8.765625 -19.140625 C 8.765625 -18.804688 8.726562 -18.132812 8.65625 -17.125 C 8.59375 -16.113281 8.539062 -15.101562 8.5 -14.09375 C 8.46875 -13.09375 8.453125 -12.425781 8.453125 -12.09375 C 8.523438 -11.75 8.644531 -11.457031 8.8125 -11.21875 C 8.976562 -10.988281 9.128906 -10.773438 9.265625 -10.578125 C 9.460938 -10.503906 9.695312 -10.382812 9.96875 -10.21875 C 10.238281 -10.050781 10.507812 -9.898438 10.78125 -9.765625 C 11.050781 -9.566406 11.316406 -9.484375 11.578125 -9.515625 C 11.847656 -9.546875 12.117188 -9.597656 12.390625 -9.671875 C 14.472656 -10.410156 15.96875 -11.082031 16.875 -11.6875 C 17.78125 -12.289062 18.414062 -12.894531 18.78125 -13.5 C 19.15625 -14.101562 19.578125 -14.835938 20.046875 -15.703125 C 20.515625 -16.578125 21.351562 -17.65625 22.5625 -18.9375 C 23.03125 -19.601562 23.5 -20.253906 23.96875 -20.890625 C 24.4375 -21.535156 24.804688 -22.257812 25.078125 -23.0625 C 25.078125 -23.132812 25.175781 -23.335938 25.375 -23.671875 C 25.644531 -23.203125 25.675781 -22.664062 25.46875 -22.0625 C 25.269531 -21.457031 25.507812 -21.085938 26.1875 -20.953125 C 25.507812 -19.671875 24.835938 -18.273438 24.171875 -16.765625 C 23.503906 -15.253906 22.78125 -13.84375 22 -12.53125 C 21.226562 -11.226562 20.273438 -10.238281 19.140625 -9.5625 C 18.867188 -9.226562 18.296875 -8.675781 17.421875 -7.90625 C 16.546875 -7.132812 15.503906 -6.363281 14.296875 -5.59375 C 13.085938 -4.820312 11.828125 -4.25 10.515625 -3.875 C 9.210938 -3.507812 7.988281 -3.523438 6.84375 -3.921875 C 6.175781 -3.660156 5.488281 -3.78125 4.78125 -4.28125 C 4.082031 -4.78125 3.363281 -5.164062 2.625 -5.4375 C 1.675781 -5.84375 0.703125 -6.582031 -0.296875 -7.65625 C -0.566406 -8.320312 -0.800781 -8.988281 -1 -9.65625 C -1.207031 -10.332031 -1.3125 -11.007812 -1.3125 -11.6875 C -1.375 -12.019531 -1.421875 -12.335938 -1.453125 -12.640625 C -1.492188 -12.941406 -1.515625 -13.226562 -1.515625 -13.5 C -1.378906 -14.101562 -1.3125 -14.875 -1.3125 -15.8125 C -1.3125 -16.75 -1.207031 -17.421875 -1 -17.828125 C -0.9375 -18.097656 -0.867188 -18.363281 -0.796875 -18.625 C -0.734375 -18.894531 -0.703125 -19.164062 -0.703125 -19.4375 C -0.566406 -19.507812 -0.5 -19.628906 -0.5 -19.796875 C -0.5 -19.960938 -0.332031 -20.078125 0 -20.140625 C 0.0625 -20.140625 0.109375 -20.207031 0.140625 -20.34375 C 0.179688 -20.476562 0.234375 -20.578125 0.296875 -20.640625 C 0.566406 -20.984375 0.75 -21.320312 0.84375 -21.65625 C 0.945312 -21.988281 1.132812 -22.320312 1.40625 -22.65625 C 1.40625 -22.65625 1.253906 -22.503906 0.953125 -22.203125 C 0.648438 -21.898438 0.398438 -21.710938 0.203125 -21.640625 C 0.00390625 -21.578125 0.101562 -21.882812 0.5 -22.5625 C 0.90625 -23.570312 1.476562 -24.59375 2.21875 -25.625 C 2.957031 -26.664062 3.460938 -27.523438 3.734375 -28.203125 C 3.734375 -28.335938 3.765625 -28.453125 3.828125 -28.546875 C 3.890625 -28.648438 3.921875 -28.703125 3.921875 -28.703125 C 4.054688 -29.035156 4.191406 -29.316406 4.328125 -29.546875 C 4.460938 -29.785156 4.460938 -30.078125 4.328125 -30.421875 C 4.265625 -30.753906 4.367188 -31.222656 4.640625 -31.828125 Z M 15.109375 -43.515625 C 14.972656 -43.378906 14.867188 -43.242188 14.796875 -43.109375 C 14.734375 -42.972656 14.632812 -42.835938 14.5 -42.703125 C 14.4375 -42.566406 14.351562 -42.429688 14.25 -42.296875 C 14.144531 -42.160156 14.0625 -41.992188 14 -41.796875 C 14 -41.597656 13.929688 -41.429688 13.796875 -41.296875 L 12.796875 -40.09375 C 12.523438 -39.6875 12.019531 -39.414062 11.28125 -39.28125 C 11.082031 -39.34375 10.847656 -39.242188 10.578125 -38.984375 C 10.109375 -38.640625 9.640625 -38.601562 9.171875 -38.875 C 8.960938 -39.007812 8.691406 -39.078125 8.359375 -39.078125 C 7.890625 -39.078125 7.519531 -39.109375 7.25 -39.171875 L 7.546875 -39.578125 C 7.546875 -39.710938 7.578125 -39.863281 7.640625 -40.03125 C 7.710938 -40.195312 7.785156 -40.382812 7.859375 -40.59375 C 7.992188 -40.863281 8.109375 -41.082031 8.203125 -41.25 C 8.304688 -41.414062 8.425781 -41.632812 8.5625 -41.90625 C 8.5625 -42.03125 8.609375 -42.125 8.703125 -42.1875 C 8.804688 -42.257812 8.859375 -42.332031 8.859375 -42.40625 C 8.859375 -42.738281 8.957031 -43.039062 9.15625 -43.3125 C 9.363281 -43.582031 9.535156 -43.847656 9.671875 -44.109375 L 10.265625 -45.015625 C 10.535156 -45.285156 10.738281 -45.421875 10.875 -45.421875 C 11.082031 -45.554688 11.25 -45.554688 11.375 -45.421875 C 11.375 -45.222656 11.507812 -45.191406 11.78125 -45.328125 C 11.988281 -45.460938 12.125 -45.492188 12.1875 -45.421875 C 12.382812 -45.359375 12.597656 -45.289062 12.828125 -45.21875 C 13.066406 -45.15625 13.289062 -45.085938 13.5 -45.015625 C 14.164062 -44.753906 14.703125 -44.253906 15.109375 -43.515625 Z M 15.109375 -43.515625 "/></g></g></g></g></svg>