<svg xmlns="http://www.w3.org/2000/svg" xmlns:xlink="http://www.w3.org/1999/xlink" width="500" zoomAndPan="magnify" viewBox="0 0 375 374.999991" height="500" preserveAspectRatio="xMidYMid meet" version="1.0"><defs><g/><clipPath id="8edb5b060a"><path d="M 50 61 L 317 61 L 317 324.710938 L 50 324.710938 Z M 50 61 " clip-rule="nonzero"/></clipPath><clipPath id="45b9a2b1c3"><path d="M 317 217 L 325.519531 217 L 325.519531 252 L 317 252 Z M 317 217 " clip-rule="nonzero"/></clipPath><clipPath id="7fb2ad764e"><path d="M 198 50.210938 L 202 50.210938 L 202 51 L 198 51 Z M 198 50.210938 " clip-rule="nonzero"/></clipPath></defs><g clip-path="url(#8edb5b060a)"><path fill="#2f4382" d="M 57.15625 225.335938 L 57.050781 225.425781 L 57.394531 226.539062 Z M 316.472656 174.539062 C 316.449219 175.734375 316.140625 175.777344 315.785156 174.292969 C 315.289062 172.199219 314.75 170.0625 314.308594 167.613281 C 313.210938 162.988281 311.75 158.253906 310.507812 153.507812 C 306.167969 140.492188 299.941406 128.167969 292.148438 116.835938 L 286.230469 108.925781 L 279.550781 101.640625 C 277.792969 99.558594 275.664062 97.835938 273.664062 96.125 C 271.539062 94.304688 269.597656 92.703125 268.046875 91.53125 C 266.425781 90.441406 265.132812 89.859375 264.523438 89.789062 C 263.65625 89.71875 261.453125 88.394531 258.179688 86.070312 C 248.414062 79.984375 238.269531 74.496094 226.867188 70.777344 L 222.390625 69.191406 L 217.777344 68.105469 C 216.4375 67.792969 215.058594 67.714844 215.710938 67.996094 C 216.253906 68.230469 216.976562 68.519531 217.832031 68.773438 C 219.238281 69.175781 220.804688 69.625 222.304688 70.050781 C 233.4375 73.894531 244.082031 78.746094 253.628906 85.324219 C 258.003906 88.222656 262.089844 91.597656 266.21875 94.886719 C 269.308594 97.835938 272.488281 100.550781 274.988281 103.4375 C 276.75 105.660156 278.949219 108.058594 281.074219 110.425781 C 284.171875 114 286.730469 117.996094 289.597656 121.738281 C 291.929688 125.835938 294.554688 129.769531 296.660156 133.980469 C 296.792969 134.277344 296.925781 134.71875 296.90625 134.785156 C 296.882812 134.851562 296.660156 134.613281 296.550781 134.394531 C 294.699219 130.679688 292.160156 127.316406 290.125 123.722656 C 285.714844 117.101562 280.808594 111.007812 275.304688 105.457031 C 274.257812 104.304688 273.179688 103.125 271.984375 102.113281 C 262.410156 92.363281 250.898438 84.667969 238.722656 78.589844 C 235.894531 77.222656 233.097656 75.65625 230.214844 74.671875 C 219.851562 69.960938 208.382812 67.632812 196.839844 66.015625 C 184.707031 65.195312 172.40625 65.144531 160.449219 67.554688 C 140.585938 70.917969 121.941406 79.835938 105.957031 91.914062 C 95.089844 100.273438 85.480469 110.3125 77.558594 121.558594 C 69.53125 133.300781 63.515625 146.503906 59.75 160.269531 C 59.101562 162.832031 58.328125 165.363281 57.738281 167.929688 L 56.445312 175.730469 C 54.421875 190.429688 54.808594 205.523438 57.734375 220.117188 C 58.40625 222.679688 59.085938 225.269531 59.757812 227.820312 C 63.25 239.492188 67.863281 250.839844 74.414062 261.203125 C 76.152344 264.453125 78.367188 267.445312 80.648438 270.40625 L 84.003906 274.898438 L 87.753906 279.0625 C 90.265625 281.8125 92.667969 284.671875 95.53125 287.066406 L 97.308594 288.855469 C 96.699219 288.382812 96.132812 287.945312 95.464844 287.429688 C 94.371094 286.53125 93.214844 285.582031 92.082031 284.652344 L 92.371094 284.886719 C 89.683594 282.230469 87.011719 279.367188 84.277344 276.5 C 81.699219 273.5 79.382812 270.222656 76.902344 267.117188 C 76 266.050781 75.269531 265.035156 74.558594 264.035156 C 74.429688 263.863281 74.398438 263.996094 74.484375 264.210938 C 74.574219 264.449219 74.820312 264.945312 75.050781 265.332031 C 77.441406 268.894531 80.128906 272.277344 82.613281 275.773438 C 85.824219 279.441406 88.996094 283.046875 92.472656 286.390625 C 101.039062 294.394531 110.625 301.222656 120.867188 306.867188 C 127.082031 309.878906 133.238281 313.011719 139.566406 314.710938 C 142.242188 315.53125 145.433594 316.859375 148.554688 317.484375 L 156.3125 319.441406 C 158.902344 320.089844 161.585938 320.273438 164.210938 320.726562 C 169.464844 321.742188 174.808594 321.871094 180.140625 322.132812 C 192.898438 322.296875 205.835938 321.316406 218.101562 317.730469 C 222.035156 316.957031 225.707031 315.433594 229.476562 314.144531 C 233.296875 312.972656 236.878906 311.1875 240.492188 309.367188 C 242.351562 308.386719 244.421875 307.589844 246.21875 306.515625 C 256.445312 300.949219 265.992188 293.835938 274.527344 285.773438 C 284.503906 276.023438 292.875 264.980469 299.519531 252.976562 C 302.066406 248.035156 304.664062 243.289062 306.484375 238.25 C 308.730469 233.371094 310.183594 228.285156 311.691406 223.148438 C 313.238281 218.742188 313.652344 214.8125 314.671875 212.238281 C 315.582031 209.542969 316.175781 208.769531 316.167969 212.097656 C 316.167969 213.363281 316.15625 214.730469 316.253906 215.507812 C 316.429688 217.074219 316.480469 218.851562 316.136719 221.085938 C 315.667969 223.289062 314.925781 225.972656 313.886719 229.421875 C 313.089844 232.472656 311.945312 235.429688 310.691406 238.40625 C 309.421875 241.363281 308.496094 244.511719 306.953125 247.480469 C 305.953125 249.433594 304.96875 251.355469 303.988281 253.273438 C 302.164062 256.808594 301.304688 257.804688 302.023438 255.550781 C 302.433594 254.296875 302.917969 252.820312 303.3125 251.617188 C 303.605469 250.664062 302.894531 251.253906 302.125 252.636719 C 300.828125 255.171875 299.277344 257.554688 297.558594 260.097656 C 291.636719 270.4375 283.644531 279.511719 275.207031 287.863281 C 274.007812 288.949219 272.753906 290.082031 271.574219 291.148438 C 260.746094 301.195312 248.167969 308.867188 234.734375 314.535156 C 217.683594 321.492188 199.214844 324.800781 180.734375 324.417969 L 170.976562 323.933594 C 155.300781 322.3125 139.980469 317.886719 125.890625 310.925781 C 120.636719 308.6875 115.953125 305.351562 111.023438 302.5 C 108.644531 300.933594 106.429688 299.125 104.125 297.472656 C 101.816406 295.8125 99.527344 294.140625 97.488281 292.179688 C 85.539062 282.0625 75.484375 269.566406 67.75 255.984375 C 61.246094 244.1875 56.648438 231.449219 53.457031 218.949219 C 52.664062 213.964844 51.179688 208.625 50.96875 203.300781 C 50.804688 201.179688 50.628906 198.859375 50.476562 196.914062 C 49.792969 188.28125 50.332031 178.832031 51.820312 169.667969 C 52.148438 165.832031 53.339844 162.179688 54.140625 158.433594 C 54.890625 154.664062 56.074219 151.019531 57.4375 147.402344 C 60.8125 136.863281 66.359375 127.050781 72.402344 117.839844 C 79.59375 108.132812 87.613281 99.148438 96.941406 91.578125 C 101.140625 88.121094 105.675781 85.042969 110.167969 81.921875 C 121.378906 74.5625 133.261719 69.882812 145.535156 66.238281 C 148.660156 65.542969 151.730469 64.859375 154.71875 64.195312 C 168.488281 61.832031 183.117188 61.101562 197.738281 62.640625 C 199.871094 62.96875 202.082031 63.304688 204.164062 63.625 L 209.769531 64.378906 C 211.617188 64.757812 213.445312 65.265625 215.285156 65.707031 C 218.945312 66.671875 222.707031 67.367188 226.242188 68.855469 C 228.796875 69.792969 231.269531 70.390625 231.410156 70.15625 C 231.558594 69.90625 229.789062 68.964844 227.476562 68.011719 C 223.59375 66.203125 219.289062 65.308594 215.03125 64.195312 C 212.957031 63.734375 210.933594 62.898438 208.847656 62.640625 C 206.980469 62.304688 206.050781 61.757812 207.542969 61.855469 C 209.238281 61.941406 211.09375 62.097656 212.953125 62.546875 C 213.859375 62.726562 215.097656 63.023438 216.105469 63.300781 C 218.671875 63.992188 221.21875 64.675781 223.753906 65.355469 L 231.128906 68.011719 C 236.136719 69.527344 240.710938 72.007812 245.488281 74.117188 C 249.917969 76.171875 254.085938 79.148438 258.390625 81.644531 L 268.996094 89.660156 C 272.679688 93.132812 276.386719 96.273438 279.511719 99.828125 C 281.527344 102.1875 283.601562 104.617188 285.707031 107.089844 C 287.828125 109.535156 289.582031 112.347656 291.585938 114.972656 C 293.992188 118.011719 295.917969 121.40625 297.957031 124.503906 C 301.210938 128.984375 303.265625 133.796875 305.339844 138.671875 C 307.175781 142.597656 308.234375 146.433594 310.050781 150.273438 C 311.429688 153.097656 312.28125 156.222656 313.25 159.363281 C 314.128906 162.523438 315.402344 165.652344 315.882812 168.90625 C 316.21875 170.578125 316.496094 173.285156 316.472656 174.539062 " fill-opacity="1" fill-rule="nonzero"/></g><path fill="#2f4382" d="M 252.226562 61.28125 C 257.660156 64.132812 262.191406 67.507812 266.078125 70.230469 C 269.394531 73.101562 273.664062 76.351562 278.179688 79.789062 C 281.074219 82.324219 283.433594 84.550781 285.453125 86.75 C 287.320312 88.628906 289.070312 90.910156 291.066406 93.367188 C 294.5 97.546875 295.910156 99.679688 296.132812 100.800781 C 296.1875 101.128906 296.75 102.144531 297.363281 103.160156 C 297.660156 103.648438 298.632812 104.902344 299.296875 105.769531 C 299.578125 106.136719 300.011719 106.613281 300.121094 106.679688 C 301.210938 107.515625 303.535156 109.472656 306.582031 114.714844 C 309.386719 119.414062 312.300781 123.855469 314.203125 128.679688 C 315.703125 132.355469 317.597656 135.804688 318.679688 139.644531 C 319.757812 142.871094 320.839844 146.125 321.9375 149.425781 C 322.460938 151.035156 322.835938 152.898438 323.324219 154.5625 C 323.578125 155.5 323.980469 156.703125 324.148438 157.011719 C 324.3125 157.320312 324.402344 156.984375 324.277344 156.332031 C 323.773438 153.9375 323.429688 151.320312 322.609375 148.695312 C 320.757812 143.453125 319.398438 137.746094 316.984375 132.703125 C 314.695312 127.285156 312.371094 121.886719 309.332031 116.847656 C 306.660156 111.585938 303.261719 106.785156 299.855469 101.914062 C 298.042969 99.042969 295.539062 96.417969 293.269531 93.726562 C 291.527344 91.75 289.875 89.679688 288.046875 87.777344 L 282.316406 82.273438 C 279.808594 79.753906 277.152344 77.394531 274.28125 75.277344 C 271.449219 73.121094 268.746094 70.761719 265.78125 68.785156 L 265.644531 68.753906 C 260.472656 65.613281 255.554688 62.007812 249.996094 59.503906 C 248.390625 58.726562 246.738281 57.921875 245.109375 57.128906 C 244.6875 56.925781 243.867188 56.601562 243.886719 56.640625 C 243.953125 56.785156 243.976562 56.980469 244.546875 57.28125 C 247.011719 58.566406 249.59375 59.910156 252.226562 61.28125 " fill-opacity="1" fill-rule="nonzero"/><g clip-path="url(#45b9a2b1c3)"><path fill="#2f4382" d="M 324.097656 220.117188 C 323.085938 224.882812 321.402344 229.511719 320.089844 234.296875 C 319.726562 235.824219 318.980469 237.585938 318.429688 239.234375 C 317.472656 241.898438 316.863281 244.363281 317.097656 244.574219 C 317.332031 244.800781 318.335938 242.972656 319.285156 240.550781 C 319.683594 239.496094 320.105469 238.371094 320.519531 237.277344 C 320.699219 236.71875 320.945312 236.167969 321.066406 235.597656 C 322.222656 231.273438 322.871094 229.875 322.714844 231.96875 C 322.53125 233.71875 322.417969 236.015625 321.488281 238.847656 C 320.238281 243.160156 319.332031 246.722656 318.867188 249.335938 C 318.503906 251.382812 318.25 252.5 319.355469 251.222656 C 319.769531 250.785156 320.425781 249.246094 320.992188 247.875 C 321.539062 246.507812 322.214844 244.484375 322.605469 243.164062 C 323.371094 240.601562 323.503906 239.421875 323.390625 238.875 C 323.222656 238.21875 323.300781 237.476562 323.785156 234.445312 C 325.15625 226.21875 325.269531 223.199219 324.992188 218.269531 C 324.972656 217.226562 324.441406 218.347656 324.097656 220.117188 " fill-opacity="1" fill-rule="nonzero"/></g><path fill="#2f4382" d="M 304.089844 258.8125 C 302.359375 262.042969 301.828125 263.648438 300.753906 265.996094 C 299.8125 267.875 298.710938 270.273438 296.894531 272.285156 C 296.066406 273.308594 295.410156 274.121094 294.730469 274.960938 C 294.425781 275.371094 294.003906 275.933594 293.757812 276.265625 C 293.253906 277.027344 292.511719 278.125 292.460938 278.335938 C 292.015625 280.09375 295.355469 277.207031 299.1875 272.449219 C 300.007812 271.554688 300.992188 269.507812 301.453125 268.636719 C 301.921875 267.648438 301.882812 267.339844 302.011719 266.816406 C 302.238281 265.875 302.996094 264.234375 304.417969 261.699219 C 305.832031 259.425781 306.789062 256.855469 307.832031 254.511719 C 308.195312 253.667969 308.472656 252.824219 308.523438 252.488281 C 308.730469 251.132812 308.230469 251.277344 306.855469 253.3125 C 306.230469 254.222656 304.800781 257.179688 304.089844 258.8125 " fill-opacity="1" fill-rule="nonzero"/><path fill="#2f4382" d="M 280.871094 291.351562 C 275.773438 296.304688 273.238281 299.394531 272.136719 301.253906 C 272.046875 301.441406 273.164062 300.71875 273.480469 300.402344 C 276.363281 297.691406 279.203125 295.023438 282.085938 292.316406 C 285.011719 289.128906 285.636719 287.921875 285.976562 287.058594 C 285.96875 286.886719 285.996094 286.683594 285.941406 286.574219 C 285.726562 286.183594 283.332031 288.601562 280.871094 291.351562 " fill-opacity="1" fill-rule="nonzero"/><path fill="#2f4382" d="M 321.710938 219.734375 C 321.597656 219.386719 321.492188 218.886719 321.289062 219.210938 C 320.640625 220.417969 319.433594 223.363281 317.9375 227.570312 C 317.691406 228.277344 317.277344 229.734375 317.105469 230.554688 C 316.847656 231.953125 316.640625 233.097656 316.457031 234.085938 C 316.578125 234.269531 316.59375 234.6875 316.75 234.480469 C 317.71875 233.230469 319.03125 230.1875 320.703125 225.222656 C 321.304688 223.636719 321.949219 220.210938 321.710938 219.734375 " fill-opacity="1" fill-rule="nonzero"/><path fill="#2f4382" d="M 323.398438 204.230469 C 323.484375 202.152344 323.628906 198.726562 323.769531 195.3125 C 323.828125 193.863281 323.605469 192.808594 323.441406 193.523438 C 322.742188 196.558594 322.253906 201.675781 321.800781 207.1875 C 321.296875 210.273438 321.066406 213.988281 321.519531 213.402344 C 321.890625 212.691406 323.21875 209.476562 323.398438 204.230469 " fill-opacity="1" fill-rule="nonzero"/><path fill="#2f4382" d="M 298.527344 266.976562 C 298.703125 266.570312 298.457031 266.640625 298.128906 267.078125 C 297.429688 267.960938 296.675781 269.320312 295.53125 270.570312 C 294.058594 272.5625 292.464844 274.726562 290.914062 276.828125 C 290.429688 277.496094 289.921875 278.375 289.832031 278.648438 C 289.742188 278.921875 289.996094 278.8125 290.398438 278.398438 C 292.789062 275.730469 297.417969 270.234375 298.527344 266.976562 " fill-opacity="1" fill-rule="nonzero"/><path fill="#2f4382" d="M 82.238281 82.34375 C 84.945312 80.03125 87.507812 77.503906 90.265625 75.398438 C 90.585938 75.128906 90.796875 74.878906 90.742188 74.859375 C 90.683594 74.84375 90.320312 75.027344 89.953125 75.28125 C 85.980469 77.929688 82.738281 81.523438 79.210938 84.695312 C 78.898438 84.988281 78.710938 85.25 78.472656 85.523438 C 78.839844 85.230469 79.164062 84.972656 79.585938 84.640625 C 80.441406 83.898438 81.347656 83.109375 82.238281 82.34375 " fill-opacity="1" fill-rule="nonzero"/><path fill="#2f4382" d="M 310.394531 137.625 C 310.402344 137.742188 310.625 138.273438 310.835938 138.863281 C 311.4375 140.105469 311.917969 141.660156 312.511719 143.128906 C 312.65625 143.507812 312.890625 143.972656 312.976562 144.0625 C 313.199219 144.316406 313.054688 143.648438 312.585938 142.375 C 312.003906 140.886719 311.511719 139.359375 310.730469 138.007812 C 310.597656 137.75 310.386719 137.515625 310.394531 137.625 " fill-opacity="1" fill-rule="nonzero"/><path fill="#2f4382" d="M 305.359375 274.019531 C 305.179688 274.527344 305.425781 274.328125 306.054688 273.316406 C 306.386719 272.777344 306.726562 272.039062 306.957031 271.535156 C 307.023438 271.386719 306.789062 271.621094 306.59375 271.886719 C 306.03125 272.660156 305.59375 273.421875 305.359375 274.019531 " fill-opacity="1" fill-rule="nonzero"/><path fill="#2f4382" d="M 317.699219 164.929688 C 317.65625 164.597656 317.660156 164.347656 317.570312 163.921875 C 317.371094 162.988281 317.144531 161.855469 316.902344 161.003906 C 316.570312 159.859375 316.390625 159.671875 316.484375 160.464844 C 316.628906 161.652344 317.070312 163.507812 317.457031 164.59375 C 317.5625 164.882812 317.621094 164.828125 317.699219 164.929688 " fill-opacity="1" fill-rule="nonzero"/><path fill="#2f4382" d="M 318.179688 207.445312 C 318.121094 206.949219 317.949219 207.503906 317.738281 208.871094 C 317.679688 209.261719 317.6875 209.65625 317.664062 210.054688 C 317.738281 210.46875 317.894531 209.984375 318.105469 208.609375 C 318.167969 208.210938 318.195312 207.617188 318.179688 207.445312 " fill-opacity="1" fill-rule="nonzero"/><g clip-path="url(#7fb2ad764e)"><path fill="#2f4382" d="M 201.328125 50.84375 C 201.792969 50.785156 201.21875 50.609375 199.871094 50.386719 C 199.410156 50.3125 198.558594 50.214844 198.445312 50.230469 C 198.003906 50.289062 198.589844 50.460938 199.894531 50.691406 C 200.386719 50.742188 201.203125 50.855469 201.328125 50.84375 " fill-opacity="1" fill-rule="nonzero"/></g><path fill="#2f4382" d="M 58.414062 108.839844 L 58.085938 109.097656 C 57.621094 109.910156 57.148438 110.730469 56.699219 111.515625 C 56.671875 111.566406 56.894531 111.359375 57.007812 111.269531 L 58.414062 108.839844 " fill-opacity="1" fill-rule="nonzero"/><path fill="#2f4382" d="M 306.957031 265.035156 C 306.921875 265.011719 306.683594 265.257812 306.476562 265.570312 C 305.769531 266.628906 305.421875 267.304688 305.472656 267.480469 C 305.636719 267.304688 305.765625 267.234375 305.96875 266.925781 C 306.675781 265.863281 307.0625 265.121094 306.957031 265.035156 " fill-opacity="1" fill-rule="nonzero"/><path fill="#2f4382" d="M 313.519531 192.363281 C 313.5 192.09375 313.417969 191.703125 313.394531 191.746094 C 313.367188 191.792969 313.375 192.3125 313.367188 192.621094 L 313.503906 193.292969 C 313.507812 192.980469 313.515625 192.636719 313.519531 192.363281 " fill-opacity="1" fill-rule="nonzero"/><path fill="#2f4382" d="M 314.367188 135.128906 C 314.5 135.398438 314.652344 135.578125 314.796875 135.796875 C 314.660156 135.457031 314.503906 135.082031 314.386719 134.789062 C 314.25 134.511719 314.097656 134.335938 313.953125 134.113281 C 314.089844 134.457031 314.242188 134.828125 314.367188 135.128906 " fill-opacity="1" fill-rule="nonzero"/><path fill="#2f4382" d="M 309.234375 172.578125 C 309.273438 172.964844 309.320312 173.414062 309.351562 173.714844 C 309.417969 174.074219 309.546875 174.535156 309.589844 174.550781 C 309.75 174.621094 309.683594 173.964844 309.429688 172.9375 C 309.359375 172.660156 309.296875 172.691406 309.234375 172.578125 " fill-opacity="1" fill-rule="nonzero"/><path fill="#2f4382" d="M 293.75 269.398438 L 294.339844 268.796875 L 294.496094 268.371094 Z M 293.75 269.398438 " fill-opacity="1" fill-rule="nonzero"/><path fill="#2f4382" d="M 302.722656 112.554688 L 301.984375 111.523438 L 302.167969 111.945312 Z M 302.722656 112.554688 " fill-opacity="1" fill-rule="nonzero"/><path fill="#2f4382" d="M 116.988281 303.570312 L 116.367188 303.269531 L 117.3125 303.867188 Z M 116.988281 303.570312 " fill-opacity="1" fill-rule="nonzero"/><g fill="#2f4382" fill-opacity="1"><g transform="translate(76.066406, 212.824908)"><g><path d="M 11.4375 -52.9375 C 11.632812 -53.207031 11.597656 -53.359375 11.328125 -53.390625 C 11.054688 -53.429688 10.78125 -53.46875 10.5 -53.5 C 10.226562 -53.53125 10.160156 -53.648438 10.296875 -53.859375 C 10.429688 -53.992188 10.550781 -54.128906 10.65625 -54.265625 C 10.757812 -54.410156 10.847656 -54.515625 10.921875 -54.578125 C 11.742188 -55.128906 12.222656 -55.816406 12.359375 -56.640625 C 13.253906 -57.398438 14.113281 -57.847656 14.9375 -57.984375 C 15.757812 -58.117188 16.546875 -58.289062 17.296875 -58.5 C 18.878906 -59.039062 20.425781 -59.5 21.9375 -59.875 C 23.445312 -60.257812 24.988281 -60.65625 26.5625 -61.0625 C 27.53125 -61.34375 28.492188 -61.5 29.453125 -61.53125 C 30.410156 -61.5625 31.234375 -61.441406 31.921875 -61.171875 C 33.984375 -60.691406 34.804688 -59.421875 34.390625 -57.359375 C 34.328125 -57.085938 34.3125 -56.78125 34.34375 -56.4375 C 34.375 -56.09375 34.53125 -55.851562 34.8125 -55.71875 C 35.082031 -55.644531 35.148438 -55.210938 35.015625 -54.421875 C 34.878906 -53.640625 34.742188 -53.078125 34.609375 -52.734375 C 33.578125 -52.390625 32.40625 -52.128906 31.09375 -51.953125 C 29.789062 -51.785156 28.585938 -51.492188 27.484375 -51.078125 C 26.390625 -50.671875 25.601562 -49.914062 25.125 -48.8125 C 24.851562 -47.71875 24.644531 -46.976562 24.5 -46.59375 C 24.363281 -46.21875 24.128906 -45.445312 23.796875 -44.28125 L 20.90625 -32.859375 C 20.769531 -32.234375 20.648438 -31.613281 20.546875 -31 C 20.441406 -30.382812 20.285156 -29.734375 20.078125 -29.046875 L 17.8125 -22.140625 C 17.539062 -21.316406 17.164062 -20.320312 16.6875 -19.15625 C 16.207031 -17.988281 15.84375 -16.875 15.59375 -15.8125 C 15.351562 -14.75 15.441406 -13.925781 15.859375 -13.34375 C 16.273438 -12.757812 17.203125 -12.601562 18.640625 -12.875 C 19.328125 -12.9375 19.992188 -12.929688 20.640625 -12.859375 C 21.296875 -12.796875 21.863281 -12.734375 22.34375 -12.671875 C 22.34375 -12.328125 22.34375 -12 22.34375 -11.6875 C 22.34375 -11.375 22.582031 -11.253906 23.0625 -11.328125 C 22.789062 -10.773438 22.691406 -10.398438 22.765625 -10.203125 C 22.898438 -9.710938 22.863281 -9.191406 22.65625 -8.640625 C 22.445312 -8.097656 22.273438 -7.550781 22.140625 -7 C 22.066406 -6.789062 21.992188 -6.550781 21.921875 -6.28125 C 21.859375 -6.007812 21.757812 -5.804688 21.625 -5.671875 C 20.800781 -4.640625 20.492188 -3.78125 20.703125 -3.09375 C 20.910156 -2.675781 20.671875 -2.296875 19.984375 -1.953125 C 19.566406 -1.816406 19.1875 -1.695312 18.84375 -1.59375 C 18.5 -1.488281 18.257812 -1.578125 18.125 -1.859375 C 17.644531 -2.398438 16.71875 -2.570312 15.34375 -2.375 L 8.75 -1.4375 C 7.445312 -1.238281 6.109375 -1.015625 4.734375 -0.765625 C 3.359375 -0.523438 2.019531 -0.335938 0.71875 -0.203125 C -0.3125 -0.0664062 -1.359375 0.015625 -2.421875 0.046875 C -3.484375 0.0859375 -4.597656 0.175781 -5.765625 0.3125 C -6.316406 0.3125 -6.867188 0.140625 -7.421875 -0.203125 C -8.097656 -0.546875 -8.453125 -0.957031 -8.484375 -1.4375 C -8.523438 -1.914062 -8.304688 -2.601562 -7.828125 -3.5 L -6.078125 -6.078125 C -5.804688 -6.554688 -5.5 -6.863281 -5.15625 -7 C -4.46875 -7.34375 -3.78125 -7.664062 -3.09375 -7.96875 C -2.40625 -8.28125 -1.71875 -8.578125 -1.03125 -8.859375 C -0.34375 -9.128906 0.304688 -9.347656 0.921875 -9.515625 C 1.546875 -9.691406 2.203125 -9.882812 2.890625 -10.09375 C 3.367188 -10.226562 3.953125 -10.535156 4.640625 -11.015625 L 5.25 -11.84375 C 5.59375 -12.738281 5.882812 -13.613281 6.125 -14.46875 C 6.363281 -15.320312 6.625 -16.164062 6.90625 -17 C 7.101562 -18.09375 7.335938 -19.15625 7.609375 -20.1875 C 7.890625 -21.21875 8.269531 -22.316406 8.75 -23.484375 C 8.882812 -23.617188 8.988281 -23.769531 9.0625 -23.9375 C 9.132812 -24.113281 9.238281 -24.269531 9.375 -24.40625 C 10.0625 -25.363281 10.539062 -26.304688 10.8125 -27.234375 C 11.082031 -28.160156 11.320312 -29.070312 11.53125 -29.96875 C 11.738281 -30.71875 11.925781 -31.421875 12.09375 -32.078125 C 12.269531 -32.734375 12.53125 -33.40625 12.875 -34.09375 C 13.082031 -34.570312 13.203125 -35.015625 13.234375 -35.421875 C 13.265625 -35.835938 13.316406 -36.285156 13.390625 -36.765625 C 13.523438 -37.316406 13.59375 -37.847656 13.59375 -38.359375 C 13.59375 -38.878906 13.660156 -39.378906 13.796875 -39.859375 C 14.078125 -40.890625 14.21875 -41.488281 14.21875 -41.65625 C 14.21875 -41.832031 14.351562 -42.398438 14.625 -43.359375 C 15.101562 -45.078125 15.304688 -46.296875 15.234375 -47.015625 C 15.171875 -47.734375 14.878906 -48.175781 14.359375 -48.34375 C 13.847656 -48.519531 13.144531 -48.640625 12.25 -48.703125 C 11.363281 -48.773438 10.300781 -48.984375 9.0625 -49.328125 C 8.988281 -49.328125 8.988281 -49.6875 9.0625 -50.40625 C 9.132812 -51.132812 9.097656 -51.53125 8.953125 -51.59375 C 8.953125 -51.59375 9.160156 -51.710938 9.578125 -51.953125 C 9.992188 -52.191406 10.421875 -52.429688 10.859375 -52.671875 C 11.304688 -52.910156 11.5 -53 11.4375 -52.9375 Z M -2.984375 -1.03125 L -2.671875 -0.828125 C -2.128906 -0.828125 -1.613281 -0.804688 -1.125 -0.765625 C -0.644531 -0.734375 -0.164062 -0.71875 0.3125 -0.71875 L 5.765625 -1.34375 C 6.316406 -1.40625 6.863281 -1.46875 7.40625 -1.53125 C 7.957031 -1.601562 8.472656 -1.675781 8.953125 -1.75 C 9.441406 -1.882812 9.941406 -2.003906 10.453125 -2.109375 C 10.960938 -2.210938 11.460938 -2.398438 11.953125 -2.671875 C 12.359375 -2.816406 12.75 -2.890625 13.125 -2.890625 C 13.507812 -2.890625 13.90625 -2.921875 14.3125 -2.984375 C 14.789062 -3.117188 15.1875 -3.203125 15.5 -3.234375 C 15.8125 -3.273438 16.238281 -3.5 16.78125 -3.90625 C 16.4375 -3.90625 16.128906 -3.921875 15.859375 -3.953125 C 15.585938 -3.992188 15.3125 -4.015625 15.03125 -4.015625 C 14.757812 -4.085938 14.484375 -4.101562 14.203125 -4.0625 C 13.929688 -4.03125 13.625 -3.976562 13.28125 -3.90625 C 13.007812 -3.90625 12.734375 -3.890625 12.453125 -3.859375 C 12.179688 -3.828125 11.941406 -3.84375 11.734375 -3.90625 L 14.515625 -4.21875 C 14.316406 -4.5625 14.09375 -4.71875 13.84375 -4.6875 C 13.601562 -4.65625 13.3125 -4.601562 12.96875 -4.53125 C 12.351562 -4.394531 11.738281 -4.289062 11.125 -4.21875 C 10.507812 -4.15625 9.859375 -4.050781 9.171875 -3.90625 C 9.023438 -3.84375 8.882812 -3.8125 8.75 -3.8125 C 8.613281 -3.8125 8.476562 -3.742188 8.34375 -3.609375 C 7.863281 -3.328125 7.398438 -3.148438 6.953125 -3.078125 C 6.503906 -3.015625 6.039062 -2.914062 5.5625 -2.78125 C 4.394531 -2.707031 3.207031 -2.582031 2 -2.40625 C 0.800781 -2.238281 -0.3125 -2.085938 -1.34375 -1.953125 C -1.613281 -1.890625 -1.882812 -1.804688 -2.15625 -1.703125 C -2.4375 -1.597656 -2.710938 -1.375 -2.984375 -1.03125 Z M 26.359375 -52.828125 L 29.25 -53.65625 C 28.632812 -53.789062 28.101562 -53.941406 27.65625 -54.109375 C 27.207031 -54.285156 26.601562 -54.097656 25.84375 -53.546875 C 25.5 -53.003906 25.671875 -52.765625 26.359375 -52.828125 Z M 13.59375 -51.1875 L 14.828125 -51.390625 L 14.828125 -51.59375 C 14.617188 -51.59375 14.445312 -51.5625 14.3125 -51.5 C 14.039062 -51.5 13.835938 -51.460938 13.703125 -51.390625 C 13.703125 -51.316406 13.664062 -51.25 13.59375 -51.1875 Z M 13.59375 -51.1875 "/></g></g></g><g fill="#2f4382" fill-opacity="1"><g transform="translate(111.801953, 212.824908)"><g><path d="M 22.34375 -26.0625 C 22.070312 -25.644531 21.765625 -25.242188 21.421875 -24.859375 C 21.078125 -24.484375 20.734375 -24.128906 20.390625 -23.796875 C 19.703125 -23.035156 18.960938 -22.257812 18.171875 -21.46875 C 17.390625 -20.675781 16.722656 -19.867188 16.171875 -19.046875 C 15.691406 -18.429688 15.175781 -17.8125 14.625 -17.1875 C 14.070312 -16.570312 13.519531 -15.992188 12.96875 -15.453125 C 12.351562 -14.828125 11.769531 -14.035156 11.21875 -13.078125 C 10.945312 -12.671875 10.707031 -12.296875 10.5 -11.953125 C 10.300781 -11.609375 10.0625 -11.296875 9.78125 -11.015625 C 9.375 -10.671875 9.097656 -10.328125 8.953125 -9.984375 C 8.609375 -9.640625 8.226562 -8.832031 7.8125 -7.5625 C 7.40625 -6.300781 6.992188 -5.035156 6.578125 -3.765625 C 6.171875 -2.492188 5.832031 -1.6875 5.5625 -1.34375 C 5.144531 -0.925781 4.695312 -0.71875 4.21875 -0.71875 C 3.945312 -0.71875 3.46875 -0.546875 2.78125 -0.203125 C 2.507812 0.00390625 2.203125 0.125 1.859375 0.15625 C 1.515625 0.1875 1.273438 0.171875 1.140625 0.109375 C 0.585938 -0.0351562 0.0195312 -0.109375 -0.5625 -0.109375 C -1.144531 -0.109375 -1.710938 -0.140625 -2.265625 -0.203125 C -2.609375 -0.335938 -2.953125 -0.40625 -3.296875 -0.40625 C -3.640625 -0.40625 -3.984375 -0.441406 -4.328125 -0.515625 C -5.078125 -0.785156 -5.65625 -1.296875 -6.0625 -2.046875 C -6.476562 -2.804688 -6.585938 -3.738281 -6.390625 -4.84375 C -5.972656 -6.695312 -5.523438 -8.566406 -5.046875 -10.453125 C -4.566406 -12.335938 -3.984375 -14.242188 -3.296875 -16.171875 C -2.953125 -17.128906 -2.585938 -18.085938 -2.203125 -19.046875 C -1.828125 -20.015625 -1.398438 -20.941406 -0.921875 -21.828125 C 0.109375 -24.441406 1.238281 -27.019531 2.46875 -29.5625 C 3.019531 -30.65625 3.617188 -31.734375 4.265625 -32.796875 C 4.921875 -33.859375 5.523438 -34.875 6.078125 -35.84375 C 6.421875 -36.457031 6.765625 -37.070312 7.109375 -37.6875 C 7.453125 -38.3125 7.757812 -38.929688 8.03125 -39.546875 C 8.582031 -40.578125 8.960938 -41.503906 9.171875 -42.328125 C 9.171875 -42.460938 9.1875 -42.582031 9.21875 -42.6875 C 9.25 -42.789062 9.265625 -42.910156 9.265625 -43.046875 C 9.816406 -43.390625 10.226562 -43.351562 10.5 -42.9375 C 11.257812 -42.050781 12.1875 -41.4375 13.28125 -41.09375 C 13.488281 -41.09375 13.660156 -40.921875 13.796875 -40.578125 L 15.34375 -38.515625 C 15.613281 -38.097656 15.765625 -37.632812 15.796875 -37.125 C 15.835938 -36.613281 15.820312 -36.082031 15.75 -35.53125 C 15.6875 -33.601562 15.378906 -31.695312 14.828125 -29.8125 C 14.273438 -27.925781 13.519531 -25.988281 12.5625 -24 C 12.15625 -23.101562 11.929688 -22.566406 11.890625 -22.390625 C 11.859375 -22.222656 11.566406 -21.726562 11.015625 -20.90625 C 10.328125 -19.8125 10.140625 -18.988281 10.453125 -18.4375 C 10.765625 -17.882812 11.265625 -17.78125 11.953125 -18.125 C 12.972656 -19.082031 13.691406 -19.800781 14.109375 -20.28125 C 14.523438 -20.769531 15.210938 -21.5625 16.171875 -22.65625 C 17.335938 -24.09375 18.3125 -25.15625 19.09375 -25.84375 C 19.882812 -26.53125 20.832031 -27.492188 21.9375 -28.734375 L 23.890625 -30.796875 C 24.367188 -31.617188 25.09375 -32.132812 26.0625 -32.34375 L 27.078125 -32.34375 C 27.765625 -32.269531 28.414062 -32.234375 29.03125 -32.234375 C 29.65625 -32.234375 30.273438 -32.164062 30.890625 -32.03125 C 31.367188 -31.957031 31.742188 -31.765625 32.015625 -31.453125 C 32.296875 -31.148438 32.539062 -30.828125 32.75 -30.484375 C 33.019531 -30.003906 33.15625 -29.488281 33.15625 -28.9375 C 33.289062 -28.1875 33.375 -27.484375 33.40625 -26.828125 C 33.445312 -26.171875 33.363281 -25.46875 33.15625 -24.71875 C 32.957031 -23.757812 32.785156 -22.914062 32.640625 -22.1875 C 32.503906 -21.46875 32.300781 -20.628906 32.03125 -19.671875 C 31.75 -18.566406 31.554688 -17.101562 31.453125 -15.28125 C 31.359375 -13.46875 31.34375 -12.082031 31.40625 -11.125 C 31.476562 -10.300781 31.820312 -9.785156 32.4375 -9.578125 C 33.050781 -9.367188 33.71875 -9.332031 34.4375 -9.46875 C 35.164062 -9.613281 35.703125 -9.753906 36.046875 -9.890625 C 36.316406 -10.023438 36.570312 -10.160156 36.8125 -10.296875 C 37.050781 -10.429688 37.3125 -10.535156 37.59375 -10.609375 C 38.28125 -11.015625 39.132812 -11.613281 40.15625 -12.40625 C 41.1875 -13.195312 42.179688 -14.019531 43.140625 -14.875 C 44.109375 -15.738281 44.832031 -16.476562 45.3125 -17.09375 C 45.445312 -17.226562 45.804688 -17.535156 46.390625 -18.015625 C 46.972656 -18.503906 47.554688 -18.988281 48.140625 -19.46875 C 48.722656 -19.945312 49.082031 -20.253906 49.21875 -20.390625 C 49.632812 -21.003906 49.910156 -21.535156 50.046875 -21.984375 C 50.179688 -22.429688 50.457031 -22.929688 50.875 -23.484375 C 51.007812 -23.617188 51.09375 -23.753906 51.125 -23.890625 C 51.164062 -24.023438 51.289062 -24.195312 51.5 -24.40625 C 51.5 -24.132812 51.53125 -23.960938 51.59375 -23.890625 C 51.664062 -23.617188 51.664062 -23.363281 51.59375 -23.125 C 51.53125 -22.882812 51.53125 -22.59375 51.59375 -22.25 C 51.59375 -21.90625 51.59375 -21.800781 51.59375 -21.9375 C 51.59375 -22.070312 51.523438 -21.96875 51.390625 -21.625 C 51.117188 -21.28125 50.984375 -20.832031 50.984375 -20.28125 C 50.910156 -19.800781 50.703125 -19.289062 50.359375 -18.75 C 49.878906 -18.0625 49.398438 -17.269531 48.921875 -16.375 C 48.441406 -15.476562 47.957031 -14.757812 47.46875 -14.21875 C 47.195312 -13.9375 46.648438 -13.347656 45.828125 -12.453125 C 45.003906 -11.566406 44.195312 -10.675781 43.40625 -9.78125 C 42.613281 -8.882812 42.046875 -8.300781 41.703125 -8.03125 C 41.503906 -7.820312 41.265625 -7.648438 40.984375 -7.515625 C 40.710938 -7.378906 40.4375 -7.242188 40.15625 -7.109375 L 38.921875 -6.6875 C 38.441406 -6.488281 37.617188 -6.335938 36.453125 -6.234375 C 35.285156 -6.128906 34.117188 -6.09375 32.953125 -6.125 C 31.785156 -6.15625 30.894531 -6.273438 30.28125 -6.484375 C 25.882812 -7.929688 23.648438 -11.570312 23.578125 -17.40625 C 23.648438 -18.09375 23.703125 -18.742188 23.734375 -19.359375 C 23.773438 -19.972656 23.796875 -20.625 23.796875 -21.3125 C 23.929688 -22.070312 24.03125 -22.96875 24.09375 -24 C 24.164062 -25.03125 24.082031 -25.835938 23.84375 -26.421875 C 23.601562 -27.003906 23.101562 -26.882812 22.34375 -26.0625 Z M 22.34375 -26.0625 "/></g></g></g><g fill="#2f4382" fill-opacity="1"><g transform="translate(161.955305, 212.824908)"><g><path d="M 16.6875 -16.171875 L 16.6875 -16.578125 C 16 -15.890625 15.070312 -15.1875 13.90625 -14.46875 C 12.738281 -13.75 11.707031 -13.113281 10.8125 -12.5625 C 9.914062 -12.082031 8.96875 -11.804688 7.96875 -11.734375 C 6.976562 -11.671875 6.210938 -11.570312 5.671875 -11.4375 C 5.179688 -11.4375 4.472656 -11.535156 3.546875 -11.734375 C 2.617188 -11.941406 1.984375 -12.148438 1.640625 -12.359375 C 0.335938 -13.109375 -0.445312 -13.8125 -0.71875 -14.46875 C -1 -15.125 -1.273438 -16.304688 -1.546875 -18.015625 C -1.890625 -18.984375 -1.71875 -20.425781 -1.03125 -22.34375 C -0.894531 -22.96875 -0.5 -23.878906 0.15625 -25.078125 C 0.8125 -26.273438 1.53125 -27.578125 2.3125 -28.984375 C 3.101562 -30.390625 3.859375 -31.675781 4.578125 -32.84375 C 5.304688 -34.019531 5.769531 -34.878906 5.96875 -35.421875 C 6.25 -35.972656 6.523438 -36.539062 6.796875 -37.125 C 7.066406 -37.707031 7.410156 -38.304688 7.828125 -38.921875 C 7.960938 -39.265625 8.148438 -39.519531 8.390625 -39.6875 C 8.628906 -39.863281 8.890625 -40.019531 9.171875 -40.15625 C 9.515625 -40.300781 9.851562 -40.40625 10.1875 -40.46875 C 10.53125 -40.539062 10.84375 -40.710938 11.125 -40.984375 C 11.875 -41.398438 12.179688 -41.757812 12.046875 -42.0625 C 11.910156 -42.375 12.082031 -42.566406 12.5625 -42.640625 C 13.519531 -42.640625 14.273438 -42.257812 14.828125 -41.5 C 15.035156 -41.4375 15.171875 -41.300781 15.234375 -41.09375 C 15.304688 -40.882812 15.445312 -40.675781 15.65625 -40.46875 C 15.789062 -40.40625 15.859375 -40.269531 15.859375 -40.0625 C 15.859375 -39.851562 15.859375 -39.644531 15.859375 -39.4375 C 15.648438 -38.613281 15.304688 -37.582031 14.828125 -36.34375 C 14.347656 -35.113281 13.867188 -33.878906 13.390625 -32.640625 C 12.910156 -31.410156 12.566406 -30.382812 12.359375 -29.5625 C 12.085938 -29.21875 11.898438 -28.507812 11.796875 -27.4375 C 11.691406 -26.375 11.570312 -25.671875 11.4375 -25.328125 C 11.363281 -24.847656 11.257812 -24.367188 11.125 -23.890625 C 10.988281 -23.410156 10.78125 -22.894531 10.5 -22.34375 C 10.4375 -21.9375 10.316406 -21.421875 10.140625 -20.796875 C 9.972656 -20.179688 10.023438 -19.769531 10.296875 -19.5625 C 10.503906 -19.289062 10.691406 -18.863281 10.859375 -18.28125 C 11.035156 -17.695312 11.257812 -17.4375 11.53125 -17.5 C 12.769531 -18.1875 14.09375 -18.664062 15.5 -18.9375 C 16.90625 -19.21875 17.953125 -19.769531 18.640625 -20.59375 C 19.054688 -21.144531 19.414062 -21.4375 19.71875 -21.46875 C 20.03125 -21.507812 20.390625 -21.769531 20.796875 -22.25 C 21.140625 -22.59375 21.394531 -22.914062 21.5625 -23.21875 C 21.738281 -23.53125 21.894531 -23.820312 22.03125 -24.09375 C 22.375 -24.78125 22.597656 -25.15625 22.703125 -25.21875 C 22.804688 -25.289062 23 -25.601562 23.28125 -26.15625 C 23.625 -26.84375 24 -27.492188 24.40625 -28.109375 C 24.820312 -28.734375 25.234375 -29.316406 25.640625 -29.859375 C 25.773438 -30.347656 25.960938 -30.757812 26.203125 -31.09375 C 26.441406 -31.4375 26.703125 -31.816406 26.984375 -32.234375 C 27.535156 -32.367188 27.84375 -32.4375 27.90625 -32.4375 C 27.976562 -32.4375 28.117188 -32.40625 28.328125 -32.34375 C 29.078125 -32.40625 29.332031 -32.398438 29.09375 -32.328125 C 28.851562 -32.265625 28.972656 -32.097656 29.453125 -31.828125 C 29.585938 -31.617188 29.640625 -31.425781 29.609375 -31.25 C 29.578125 -31.082031 29.628906 -30.929688 29.765625 -30.796875 C 29.421875 -29.828125 29.160156 -28.828125 28.984375 -27.796875 C 28.816406 -26.773438 28.492188 -25.679688 28.015625 -24.515625 C 27.878906 -24.171875 27.8125 -24.046875 27.8125 -24.140625 C 27.8125 -24.242188 27.640625 -24.054688 27.296875 -23.578125 C 27.359375 -23.304688 27.300781 -22.945312 27.125 -22.5 C 26.957031 -22.050781 26.769531 -21.625 26.5625 -21.21875 C 26.363281 -20.738281 26.242188 -20.238281 26.203125 -19.71875 C 26.171875 -19.207031 25.984375 -18.742188 25.640625 -18.328125 C 24.816406 -14.828125 24.40625 -12.90625 24.40625 -12.5625 C 24.269531 -11.875 24.9375 -11.375 26.40625 -11.0625 C 27.882812 -10.757812 29.519531 -10.882812 31.3125 -11.4375 C 32.132812 -11.78125 33.078125 -12.394531 34.140625 -13.28125 C 35.203125 -14.175781 36.265625 -15.207031 37.328125 -16.375 C 38.390625 -17.539062 39.234375 -18.640625 39.859375 -19.671875 C 40.203125 -20.285156 40.5625 -20.914062 40.9375 -21.5625 C 41.3125 -22.21875 41.773438 -22.960938 42.328125 -23.796875 C 42.671875 -24.410156 42.976562 -24.578125 43.25 -24.296875 C 43.53125 -24.023438 43.71875 -23.613281 43.8125 -23.0625 C 43.914062 -22.519531 43.898438 -22.109375 43.765625 -21.828125 L 43.15625 -20.59375 C 42.738281 -20.320312 42.304688 -19.582031 41.859375 -18.375 C 41.410156 -17.175781 41.015625 -16.40625 40.671875 -16.0625 C 40.609375 -16 40.554688 -15.894531 40.515625 -15.75 C 40.484375 -15.613281 40.332031 -15.476562 40.0625 -15.34375 C 39.375 -14.445312 38.445312 -13.378906 37.28125 -12.140625 C 36.113281 -10.910156 35.015625 -9.882812 33.984375 -9.0625 C 33.503906 -8.988281 33.175781 -8.863281 33 -8.6875 C 32.832031 -8.519531 32.507812 -8.335938 32.03125 -8.140625 C 31.6875 -7.796875 31.410156 -7.550781 31.203125 -7.40625 C 30.992188 -7.269531 30.648438 -7.066406 30.171875 -6.796875 C 29.828125 -6.660156 29.585938 -6.539062 29.453125 -6.4375 C 29.316406 -6.332031 29.179688 -6.210938 29.046875 -6.078125 C 28.628906 -6.210938 28.332031 -6.226562 28.15625 -6.125 C 27.988281 -6.019531 27.835938 -5.898438 27.703125 -5.765625 C 27.222656 -5.492188 26.414062 -5.269531 25.28125 -5.09375 C 24.144531 -4.925781 22.957031 -4.894531 21.71875 -5 C 20.488281 -5.101562 19.394531 -5.359375 18.4375 -5.765625 C 17.476562 -6.179688 16.925781 -6.832031 16.78125 -7.71875 C 16.507812 -9.300781 16.304688 -10.675781 16.171875 -11.84375 C 16.035156 -13.007812 16.207031 -14.453125 16.6875 -16.171875 Z M 16.6875 -16.171875 "/></g></g></g><g fill="#2f4382" fill-opacity="1"><g transform="translate(203.354991, 212.824908)"><g><path d="M 8.953125 -18.53125 C 8.546875 -17.300781 8.476562 -16.597656 8.75 -16.421875 C 9.03125 -16.253906 9.460938 -16.390625 10.046875 -16.828125 C 10.628906 -17.273438 11.175781 -17.84375 11.6875 -18.53125 C 12.207031 -19.21875 12.5 -19.769531 12.5625 -20.1875 C 12.695312 -20.59375 12.96875 -21.273438 13.375 -22.234375 C 13.789062 -23.203125 14.273438 -24.25 14.828125 -25.375 C 15.378906 -26.507812 15.878906 -27.539062 16.328125 -28.46875 C 16.773438 -29.394531 17.097656 -30 17.296875 -30.28125 C 17.640625 -30.757812 17.945312 -31.238281 18.21875 -31.71875 C 18.5 -32.195312 18.773438 -32.675781 19.046875 -33.15625 C 19.804688 -34.125 20.359375 -34.984375 20.703125 -35.734375 C 21.109375 -36.421875 21.65625 -36.832031 22.34375 -36.96875 C 22.6875 -36.96875 23.03125 -36.984375 23.375 -37.015625 C 23.71875 -37.054688 24.023438 -37.078125 24.296875 -37.078125 C 24.921875 -37.078125 25.4375 -36.867188 25.84375 -36.453125 C 26.257812 -36.046875 26.601562 -35.5 26.875 -34.8125 L 26.875 -34.390625 L 27.59375 -30.171875 C 27.738281 -29.484375 27.789062 -28.796875 27.75 -28.109375 C 27.71875 -27.421875 27.703125 -26.738281 27.703125 -26.0625 C 27.703125 -25.570312 27.71875 -25.101562 27.75 -24.65625 C 27.789062 -24.21875 27.773438 -23.757812 27.703125 -23.28125 C 27.972656 -23.132812 28.109375 -22.972656 28.109375 -22.796875 C 28.109375 -22.628906 28.144531 -22.582031 28.21875 -22.65625 C 28.351562 -22.789062 28.554688 -22.820312 28.828125 -22.75 C 29.109375 -22.6875 29.28125 -22.691406 29.34375 -22.765625 L 29.765625 -23.28125 C 29.972656 -23.414062 30.175781 -23.566406 30.375 -23.734375 C 30.582031 -23.910156 30.789062 -24.132812 31 -24.40625 C 31.269531 -24.882812 31.613281 -24.882812 32.03125 -24.40625 C 32.03125 -24.0625 31.890625 -23.785156 31.609375 -23.578125 L 31.3125 -23.0625 C 31.164062 -22.65625 30.957031 -22.414062 30.6875 -22.34375 L 30.375 -22.03125 C 30.175781 -21.832031 30.078125 -21.734375 30.078125 -21.734375 L 29.765625 -21.53125 C 29.421875 -21.1875 29.039062 -21.015625 28.625 -21.015625 C 28.351562 -21.015625 28.046875 -20.875 27.703125 -20.59375 C 27.359375 -20.382812 27.082031 -20.382812 26.875 -20.59375 C 26.53125 -20.800781 26.171875 -20.957031 25.796875 -21.0625 C 25.421875 -21.164062 25.0625 -21.285156 24.71875 -21.421875 C 23.476562 -21.691406 22.582031 -22.648438 22.03125 -24.296875 C 21.757812 -25.265625 21.609375 -26.242188 21.578125 -27.234375 C 21.546875 -28.234375 21.597656 -29.210938 21.734375 -30.171875 C 21.867188 -30.648438 21.9375 -31.09375 21.9375 -31.5 C 21.9375 -31.914062 21.96875 -32.332031 22.03125 -32.75 L 22.34375 -34.609375 C 22.550781 -34.953125 22.585938 -35.328125 22.453125 -35.734375 C 22.242188 -35.734375 22.140625 -35.695312 22.140625 -35.625 L 21.734375 -35.125 L 20.28125 -32.546875 C 20.007812 -32.066406 19.804688 -31.445312 19.671875 -30.6875 C 19.734375 -30.476562 19.710938 -30.285156 19.609375 -30.109375 C 19.515625 -29.941406 19.429688 -29.789062 19.359375 -29.65625 C 18.878906 -28.769531 18.445312 -27.894531 18.0625 -27.03125 C 17.6875 -26.175781 17.332031 -25.265625 17 -24.296875 C 16.71875 -23.617188 16.421875 -22.953125 16.109375 -22.296875 C 15.804688 -21.640625 15.484375 -20.9375 15.140625 -20.1875 C 14.660156 -19.082031 14.160156 -18.03125 13.640625 -17.03125 C 13.128906 -16.039062 12.703125 -14.960938 12.359375 -13.796875 C 12.285156 -13.453125 12.144531 -13.070312 11.9375 -12.65625 C 11.738281 -12.25 11.570312 -11.84375 11.4375 -11.4375 C 11.363281 -11.226562 11.085938 -10.660156 10.609375 -9.734375 C 10.128906 -8.804688 9.628906 -7.894531 9.109375 -7 C 8.597656 -6.113281 8.238281 -5.566406 8.03125 -5.359375 C 8.03125 -5.285156 7.976562 -5.210938 7.875 -5.140625 C 7.769531 -5.078125 7.648438 -4.976562 7.515625 -4.84375 C 6.898438 -3.945312 6.226562 -3.460938 5.5 -3.390625 C 4.78125 -3.328125 4.007812 -3.398438 3.1875 -3.609375 C 3.050781 -3.472656 2.847656 -3.539062 2.578125 -3.8125 C 1.753906 -4.019531 1.117188 -4.484375 0.671875 -5.203125 C 0.222656 -5.921875 -0.101562 -6.796875 -0.3125 -7.828125 C -0.445312 -8.722656 -0.53125 -9.613281 -0.5625 -10.5 C -0.601562 -11.394531 -0.625 -12.289062 -0.625 -13.1875 C -0.550781 -14.550781 -0.476562 -15.90625 -0.40625 -17.25 C -0.34375 -18.59375 -0.273438 -19.914062 -0.203125 -21.21875 C 0.00390625 -22.25 0.109375 -22.984375 0.109375 -23.421875 C 0.109375 -23.867188 0.140625 -24.316406 0.203125 -24.765625 C 0.273438 -25.210938 0.445312 -25.882812 0.71875 -26.78125 C 1 -28.144531 1.171875 -29.101562 1.234375 -29.65625 C 1.304688 -30.207031 1.410156 -30.773438 1.546875 -31.359375 C 1.679688 -31.941406 1.988281 -32.882812 2.46875 -34.1875 C 2.539062 -34.53125 2.660156 -34.851562 2.828125 -35.15625 C 3.003906 -35.46875 3.125 -35.796875 3.1875 -36.140625 C 3.53125 -37.109375 3.875 -38.003906 4.21875 -38.828125 C 4.5625 -39.648438 4.941406 -40.472656 5.359375 -41.296875 C 5.566406 -41.984375 5.804688 -42.410156 6.078125 -42.578125 C 6.347656 -42.753906 6.722656 -42.773438 7.203125 -42.640625 C 7.546875 -42.640625 7.941406 -42.601562 8.390625 -42.53125 C 8.835938 -42.457031 9.300781 -42.351562 9.78125 -42.21875 C 10.125 -42.15625 10.445312 -42.050781 10.75 -41.90625 C 11.0625 -41.769531 11.425781 -41.53125 11.84375 -41.1875 C 12.1875 -40.5 12.613281 -39.898438 13.125 -39.390625 C 13.644531 -38.878906 14.144531 -38.3125 14.625 -37.6875 C 15.101562 -36.863281 15.394531 -36.09375 15.5 -35.375 C 15.601562 -34.65625 15.484375 -33.816406 15.140625 -32.859375 C 15.003906 -32.171875 14.863281 -31.773438 14.71875 -31.671875 C 14.582031 -31.566406 14.460938 -31.476562 14.359375 -31.40625 C 14.265625 -31.34375 14.113281 -30.929688 13.90625 -30.171875 C 13.21875 -28.046875 12.359375 -26.070312 11.328125 -24.25 C 10.296875 -22.4375 9.503906 -20.53125 8.953125 -18.53125 Z M 8.953125 -18.53125 "/></g></g></g><g fill="#2f4382" fill-opacity="1"><g transform="translate(238.575623, 212.824908)"><g><path d="M 8.953125 -18.53125 C 8.546875 -17.300781 8.476562 -16.597656 8.75 -16.421875 C 9.03125 -16.253906 9.460938 -16.390625 10.046875 -16.828125 C 10.628906 -17.273438 11.175781 -17.84375 11.6875 -18.53125 C 12.207031 -19.21875 12.5 -19.769531 12.5625 -20.1875 C 12.695312 -20.59375 12.96875 -21.273438 13.375 -22.234375 C 13.789062 -23.203125 14.273438 -24.25 14.828125 -25.375 C 15.378906 -26.507812 15.878906 -27.539062 16.328125 -28.46875 C 16.773438 -29.394531 17.097656 -30 17.296875 -30.28125 C 17.640625 -30.757812 17.945312 -31.238281 18.21875 -31.71875 C 18.5 -32.195312 18.773438 -32.675781 19.046875 -33.15625 C 19.804688 -34.125 20.359375 -34.984375 20.703125 -35.734375 C 21.109375 -36.421875 21.65625 -36.832031 22.34375 -36.96875 C 22.6875 -36.96875 23.03125 -36.984375 23.375 -37.015625 C 23.71875 -37.054688 24.023438 -37.078125 24.296875 -37.078125 C 24.921875 -37.078125 25.4375 -36.867188 25.84375 -36.453125 C 26.257812 -36.046875 26.601562 -35.5 26.875 -34.8125 L 26.875 -34.390625 L 27.59375 -30.171875 C 27.738281 -29.484375 27.789062 -28.796875 27.75 -28.109375 C 27.71875 -27.421875 27.703125 -26.738281 27.703125 -26.0625 C 27.703125 -25.570312 27.71875 -25.101562 27.75 -24.65625 C 27.789062 -24.21875 27.773438 -23.757812 27.703125 -23.28125 C 27.972656 -23.132812 28.109375 -22.972656 28.109375 -22.796875 C 28.109375 -22.628906 28.144531 -22.582031 28.21875 -22.65625 C 28.351562 -22.789062 28.554688 -22.820312 28.828125 -22.75 C 29.109375 -22.6875 29.28125 -22.691406 29.34375 -22.765625 L 29.765625 -23.28125 C 29.972656 -23.414062 30.175781 -23.566406 30.375 -23.734375 C 30.582031 -23.910156 30.789062 -24.132812 31 -24.40625 C 31.269531 -24.882812 31.613281 -24.882812 32.03125 -24.40625 C 32.03125 -24.0625 31.890625 -23.785156 31.609375 -23.578125 L 31.3125 -23.0625 C 31.164062 -22.65625 30.957031 -22.414062 30.6875 -22.34375 L 30.375 -22.03125 C 30.175781 -21.832031 30.078125 -21.734375 30.078125 -21.734375 L 29.765625 -21.53125 C 29.421875 -21.1875 29.039062 -21.015625 28.625 -21.015625 C 28.351562 -21.015625 28.046875 -20.875 27.703125 -20.59375 C 27.359375 -20.382812 27.082031 -20.382812 26.875 -20.59375 C 26.53125 -20.800781 26.171875 -20.957031 25.796875 -21.0625 C 25.421875 -21.164062 25.0625 -21.285156 24.71875 -21.421875 C 23.476562 -21.691406 22.582031 -22.648438 22.03125 -24.296875 C 21.757812 -25.265625 21.609375 -26.242188 21.578125 -27.234375 C 21.546875 -28.234375 21.597656 -29.210938 21.734375 -30.171875 C 21.867188 -30.648438 21.9375 -31.09375 21.9375 -31.5 C 21.9375 -31.914062 21.96875 -32.332031 22.03125 -32.75 L 22.34375 -34.609375 C 22.550781 -34.953125 22.585938 -35.328125 22.453125 -35.734375 C 22.242188 -35.734375 22.140625 -35.695312 22.140625 -35.625 L 21.734375 -35.125 L 20.28125 -32.546875 C 20.007812 -32.066406 19.804688 -31.445312 19.671875 -30.6875 C 19.734375 -30.476562 19.710938 -30.285156 19.609375 -30.109375 C 19.515625 -29.941406 19.429688 -29.789062 19.359375 -29.65625 C 18.878906 -28.769531 18.445312 -27.894531 18.0625 -27.03125 C 17.6875 -26.175781 17.332031 -25.265625 17 -24.296875 C 16.71875 -23.617188 16.421875 -22.953125 16.109375 -22.296875 C 15.804688 -21.640625 15.484375 -20.9375 15.140625 -20.1875 C 14.660156 -19.082031 14.160156 -18.03125 13.640625 -17.03125 C 13.128906 -16.039062 12.703125 -14.960938 12.359375 -13.796875 C 12.285156 -13.453125 12.144531 -13.070312 11.9375 -12.65625 C 11.738281 -12.25 11.570312 -11.84375 11.4375 -11.4375 C 11.363281 -11.226562 11.085938 -10.660156 10.609375 -9.734375 C 10.128906 -8.804688 9.628906 -7.894531 9.109375 -7 C 8.597656 -6.113281 8.238281 -5.566406 8.03125 -5.359375 C 8.03125 -5.285156 7.976562 -5.210938 7.875 -5.140625 C 7.769531 -5.078125 7.648438 -4.976562 7.515625 -4.84375 C 6.898438 -3.945312 6.226562 -3.460938 5.5 -3.390625 C 4.78125 -3.328125 4.007812 -3.398438 3.1875 -3.609375 C 3.050781 -3.472656 2.847656 -3.539062 2.578125 -3.8125 C 1.753906 -4.019531 1.117188 -4.484375 0.671875 -5.203125 C 0.222656 -5.921875 -0.101562 -6.796875 -0.3125 -7.828125 C -0.445312 -8.722656 -0.53125 -9.613281 -0.5625 -10.5 C -0.601562 -11.394531 -0.625 -12.289062 -0.625 -13.1875 C -0.550781 -14.550781 -0.476562 -15.90625 -0.40625 -17.25 C -0.34375 -18.59375 -0.273438 -19.914062 -0.203125 -21.21875 C 0.00390625 -22.25 0.109375 -22.984375 0.109375 -23.421875 C 0.109375 -23.867188 0.140625 -24.316406 0.203125 -24.765625 C 0.273438 -25.210938 0.445312 -25.882812 0.71875 -26.78125 C 1 -28.144531 1.171875 -29.101562 1.234375 -29.65625 C 1.304688 -30.207031 1.410156 -30.773438 1.546875 -31.359375 C 1.679688 -31.941406 1.988281 -32.882812 2.46875 -34.1875 C 2.539062 -34.53125 2.660156 -34.851562 2.828125 -35.15625 C 3.003906 -35.46875 3.125 -35.796875 3.1875 -36.140625 C 3.53125 -37.109375 3.875 -38.003906 4.21875 -38.828125 C 4.5625 -39.648438 4.941406 -40.472656 5.359375 -41.296875 C 5.566406 -41.984375 5.804688 -42.410156 6.078125 -42.578125 C 6.347656 -42.753906 6.722656 -42.773438 7.203125 -42.640625 C 7.546875 -42.640625 7.941406 -42.601562 8.390625 -42.53125 C 8.835938 -42.457031 9.300781 -42.351562 9.78125 -42.21875 C 10.125 -42.15625 10.445312 -42.050781 10.75 -41.90625 C 11.0625 -41.769531 11.425781 -41.53125 11.84375 -41.1875 C 12.1875 -40.5 12.613281 -39.898438 13.125 -39.390625 C 13.644531 -38.878906 14.144531 -38.3125 14.625 -37.6875 C 15.101562 -36.863281 15.394531 -36.09375 15.5 -35.375 C 15.601562 -34.65625 15.484375 -33.816406 15.140625 -32.859375 C 15.003906 -32.171875 14.863281 -31.773438 14.71875 -31.671875 C 14.582031 -31.566406 14.460938 -31.476562 14.359375 -31.40625 C 14.265625 -31.34375 14.113281 -30.929688 13.90625 -30.171875 C 13.21875 -28.046875 12.359375 -26.070312 11.328125 -24.25 C 10.296875 -22.4375 9.503906 -20.53125 8.953125 -18.53125 Z M 8.953125 -18.53125 "/></g></g></g><g fill="#2f4382" fill-opacity="1"><g transform="translate(273.796267, 212.824908)"><g><path d="M 4.734375 -32.546875 C 5.015625 -32.410156 5.222656 -32.375 5.359375 -32.4375 L 5.453125 -32.546875 C 5.597656 -32.753906 5.738281 -32.90625 5.875 -33 C 6.007812 -33.101562 6.144531 -33.191406 6.28125 -33.265625 C 6.832031 -33.398438 7.640625 -33.757812 8.703125 -34.34375 C 9.765625 -34.925781 10.535156 -35.046875 11.015625 -34.703125 C 11.148438 -34.492188 11.425781 -34.269531 11.84375 -34.03125 C 12.257812 -33.789062 12.566406 -33.566406 12.765625 -33.359375 C 13.179688 -32.816406 13.25 -32.0625 12.96875 -31.09375 C 12.695312 -30.414062 12.375 -29.75 12 -29.09375 C 11.625 -28.4375 11.226562 -27.695312 10.8125 -26.875 L 10.296875 -25.328125 C 10.085938 -24.847656 9.878906 -24.332031 9.671875 -23.78125 C 9.472656 -23.238281 9.234375 -22.726562 8.953125 -22.25 C 8.816406 -21.832031 8.867188 -21.847656 9.109375 -22.296875 C 9.347656 -22.742188 9.601562 -23.207031 9.875 -23.6875 C 10.15625 -24.164062 10.265625 -24.234375 10.203125 -23.890625 C 10.203125 -23.753906 10.164062 -23.617188 10.09375 -23.484375 C 10.019531 -23.347656 9.953125 -23.207031 9.890625 -23.0625 C 9.472656 -22.039062 9.226562 -21.441406 9.15625 -21.265625 C 9.09375 -21.097656 9.023438 -20.53125 8.953125 -19.5625 C 8.953125 -19.21875 8.914062 -18.53125 8.84375 -17.5 C 8.78125 -16.476562 8.734375 -15.453125 8.703125 -14.421875 C 8.671875 -13.390625 8.65625 -12.703125 8.65625 -12.359375 C 8.71875 -12.015625 8.832031 -11.722656 9 -11.484375 C 9.175781 -11.242188 9.332031 -11.019531 9.46875 -10.8125 C 9.675781 -10.738281 9.914062 -10.617188 10.1875 -10.453125 C 10.46875 -10.285156 10.742188 -10.128906 11.015625 -9.984375 C 11.296875 -9.785156 11.570312 -9.703125 11.84375 -9.734375 C 12.113281 -9.765625 12.390625 -9.816406 12.671875 -9.890625 C 14.796875 -10.640625 16.320312 -11.320312 17.25 -11.9375 C 18.175781 -12.5625 18.828125 -13.179688 19.203125 -13.796875 C 19.578125 -14.421875 20.003906 -15.175781 20.484375 -16.0625 C 20.972656 -16.957031 21.832031 -18.054688 23.0625 -19.359375 C 23.550781 -20.046875 24.035156 -20.710938 24.515625 -21.359375 C 24.992188 -22.015625 25.367188 -22.753906 25.640625 -23.578125 C 25.640625 -23.648438 25.742188 -23.859375 25.953125 -24.203125 C 26.222656 -23.722656 26.253906 -23.171875 26.046875 -22.546875 C 25.847656 -21.929688 26.09375 -21.554688 26.78125 -21.421875 C 26.09375 -20.117188 25.40625 -18.691406 24.71875 -17.140625 C 24.03125 -15.597656 23.289062 -14.15625 22.5 -12.8125 C 21.707031 -11.476562 20.726562 -10.46875 19.5625 -9.78125 C 19.289062 -9.4375 18.707031 -8.867188 17.8125 -8.078125 C 16.925781 -7.296875 15.863281 -6.507812 14.625 -5.71875 C 13.382812 -4.925781 12.09375 -4.34375 10.75 -3.96875 C 9.414062 -3.59375 8.164062 -3.609375 7 -4.015625 C 6.3125 -3.742188 5.609375 -3.863281 4.890625 -4.375 C 4.171875 -4.894531 3.429688 -5.289062 2.671875 -5.5625 C 1.710938 -5.96875 0.71875 -6.722656 -0.3125 -7.828125 C -0.582031 -8.515625 -0.820312 -9.203125 -1.03125 -9.890625 C -1.238281 -10.578125 -1.34375 -11.265625 -1.34375 -11.953125 C -1.40625 -12.296875 -1.453125 -12.617188 -1.484375 -12.921875 C -1.523438 -13.234375 -1.546875 -13.523438 -1.546875 -13.796875 C -1.410156 -14.421875 -1.34375 -15.210938 -1.34375 -16.171875 C -1.34375 -17.128906 -1.238281 -17.816406 -1.03125 -18.234375 C -0.957031 -18.503906 -0.882812 -18.773438 -0.8125 -19.046875 C -0.75 -19.328125 -0.71875 -19.601562 -0.71875 -19.875 C -0.582031 -19.945312 -0.515625 -20.066406 -0.515625 -20.234375 C -0.515625 -20.410156 -0.34375 -20.53125 0 -20.59375 C 0.0703125 -20.59375 0.125 -20.660156 0.15625 -20.796875 C 0.1875 -20.941406 0.238281 -21.046875 0.3125 -21.109375 C 0.582031 -21.453125 0.769531 -21.796875 0.875 -22.140625 C 0.976562 -22.484375 1.164062 -22.828125 1.4375 -23.171875 C 1.4375 -23.171875 1.28125 -23.015625 0.96875 -22.703125 C 0.664062 -22.398438 0.410156 -22.210938 0.203125 -22.140625 C -0.00390625 -22.066406 0.0976562 -22.375 0.515625 -23.0625 C 0.929688 -24.09375 1.515625 -25.140625 2.265625 -26.203125 C 3.023438 -27.273438 3.539062 -28.148438 3.8125 -28.828125 C 3.8125 -28.972656 3.84375 -29.09375 3.90625 -29.1875 C 3.976562 -29.289062 4.015625 -29.34375 4.015625 -29.34375 C 4.148438 -29.6875 4.285156 -29.976562 4.421875 -30.21875 C 4.566406 -30.46875 4.566406 -30.757812 4.421875 -31.09375 C 4.359375 -31.4375 4.460938 -31.921875 4.734375 -32.546875 Z M 15.453125 -44.484375 C 15.304688 -44.347656 15.195312 -44.210938 15.125 -44.078125 C 15.0625 -43.941406 14.960938 -43.804688 14.828125 -43.671875 C 14.765625 -43.523438 14.679688 -43.382812 14.578125 -43.25 C 14.472656 -43.113281 14.382812 -42.941406 14.3125 -42.734375 C 14.3125 -42.523438 14.242188 -42.351562 14.109375 -42.21875 L 13.078125 -40.984375 C 12.804688 -40.578125 12.289062 -40.300781 11.53125 -40.15625 C 11.320312 -40.226562 11.082031 -40.128906 10.8125 -39.859375 C 10.332031 -39.515625 9.851562 -39.476562 9.375 -39.75 C 9.164062 -39.882812 8.890625 -39.953125 8.546875 -39.953125 C 8.066406 -39.953125 7.691406 -39.988281 7.421875 -40.0625 L 7.71875 -40.46875 C 7.71875 -40.601562 7.753906 -40.753906 7.828125 -40.921875 C 7.898438 -41.097656 7.96875 -41.289062 8.03125 -41.5 C 8.164062 -41.78125 8.285156 -42.003906 8.390625 -42.171875 C 8.492188 -42.335938 8.613281 -42.5625 8.75 -42.84375 C 8.75 -42.976562 8.800781 -43.078125 8.90625 -43.140625 C 9.007812 -43.210938 9.0625 -43.285156 9.0625 -43.359375 C 9.0625 -43.703125 9.164062 -44.007812 9.375 -44.28125 C 9.582031 -44.550781 9.753906 -44.828125 9.890625 -45.109375 L 10.5 -46.03125 C 10.78125 -46.3125 10.988281 -46.453125 11.125 -46.453125 C 11.332031 -46.585938 11.503906 -46.585938 11.640625 -46.453125 C 11.640625 -46.242188 11.773438 -46.207031 12.046875 -46.34375 C 12.253906 -46.476562 12.394531 -46.515625 12.46875 -46.453125 C 12.664062 -46.378906 12.882812 -46.304688 13.125 -46.234375 C 13.363281 -46.171875 13.585938 -46.101562 13.796875 -46.03125 C 14.484375 -45.757812 15.035156 -45.242188 15.453125 -44.484375 Z M 15.453125 -44.484375 "/></g></g></g></svg>